<svg width="155" height="97" viewBox="0 0 155 97" fill="none" xmlns="http://www.w3.org/2000/svg">
<g clip-path="url(#clip0_1_819)">
<path d="M119.708 26.6523C119.708 26.6523 120.303 31.3621 118.03 33.311C115.528 35.4526 113.411 43.8567 122.525 46.1694C131.639 48.4821 142.131 49.385 142.715 36.884C143.257 25.2989 140.821 21.8342 138.032 19.0992C135.409 16.5267 119.708 26.6523 119.708 26.6523Z" fill="#352C38"/>
<path d="M121.029 31.2062C121.029 31.2062 121.301 35.0152 124.565 34.4716C127.828 33.9281 123.614 29.7098 121.029 31.2062Z" fill="#F29083"/>
<path d="M140.007 27.8194C140.007 27.8194 142.412 30.786 139.658 32.6202C136.903 34.4543 137.098 28.495 140.007 27.8194Z" fill="#F29083"/>
<path d="M128.92 18.8263C128.92 18.8263 121.029 20.5955 121.709 27.5336C122.56 36.1953 128.638 40.864 133.136 40.4569C137.633 40.0498 139.874 32.33 138.848 26.165C138.168 22.0918 135.585 18.0121 128.92 18.8263Z" fill="#FFAC9D"/>
<path d="M121.709 27.5336C121.709 27.5336 121.728 27.6721 121.763 27.932C121.78 28.0619 121.797 28.2222 121.83 28.4084L121.94 29.058C121.988 29.2984 122.049 29.5604 122.111 29.8484C122.174 30.1364 122.259 30.4439 122.358 30.7666C122.574 31.4959 122.836 32.2106 123.144 32.906C123.508 33.7264 123.942 34.5134 124.444 35.2577C125.001 36.0883 125.648 36.8551 126.373 37.5444C126.754 37.9088 127.16 38.246 127.588 38.5535C128.022 38.8724 128.481 39.1562 128.961 39.4023C129.93 39.9179 130.994 40.2331 132.088 40.3291C132.631 40.3819 133.179 40.3483 133.712 40.2295C134.233 40.0977 134.724 39.8684 135.16 39.5539C136.008 38.9124 136.701 38.0888 137.187 37.1438C137.661 36.2638 138.039 35.3352 138.313 34.3742C138.558 33.5099 138.741 32.6292 138.861 31.7388C139.045 30.4031 139.095 29.0525 139.013 27.7068C138.997 27.4621 138.98 27.2456 138.958 27.0572C138.937 26.8688 138.924 26.7064 138.904 26.5786C138.87 26.3187 138.85 26.1802 138.85 26.1802C138.85 26.1802 138.874 26.3166 138.915 26.5764C138.939 26.7042 138.961 26.8644 138.984 27.0528C139.008 27.2412 139.036 27.4599 139.056 27.7025C139.104 28.1897 139.14 28.7852 139.14 29.4673C139.146 30.233 139.102 30.9982 139.01 31.7583C138.906 32.6588 138.736 33.5505 138.502 34.4262C138.242 35.4091 137.87 36.3588 137.393 37.2564C136.893 38.2355 136.179 39.0901 135.305 39.7575C134.844 40.095 134.322 40.3412 133.768 40.4829C133.21 40.6109 132.636 40.6496 132.066 40.5977C130.938 40.4921 129.843 40.1607 128.846 39.6232C128.356 39.3732 127.887 39.0835 127.445 38.757C127.01 38.4413 126.599 38.0954 126.213 37.7219C125.478 37.0108 124.829 36.2165 124.279 35.3551C123.369 33.9472 122.689 32.4034 122.265 30.7817C122.174 30.4547 122.114 30.1321 122.049 29.8527C121.984 29.5734 121.942 29.2962 121.901 29.0559C121.86 28.8155 121.834 28.5968 121.808 28.4062C121.782 28.2157 121.769 28.0576 121.754 27.9255L121.709 27.5336Z" fill="#D15A5A"/>
<path d="M128.207 20.1429C128.207 20.1429 130.409 29.8311 141.273 28.8047C141.273 28.8047 142.155 16.767 131.877 17.0615C121.6 17.356 117.932 21.1758 120.427 31.8883C120.427 31.8904 128.941 30.8597 128.207 20.1429Z" fill="#352C38"/>
<path d="M128.24 19.2356C128.24 19.2356 128.647 28.2135 137.352 29.7098L128.24 19.2356Z" fill="#352C38"/>
<path d="M125.165 31.4423C125.165 31.4423 125.197 31.5311 125.26 31.6805C125.344 31.8855 125.44 32.0857 125.546 32.2804C125.684 32.5513 125.864 32.799 126.078 33.0144C126.191 33.1247 126.327 33.2076 126.477 33.257C126.628 33.2995 126.788 33.2942 126.936 33.2418H126.949H126.938L126.971 33.2267L127.046 33.1898C127.088 33.1704 127.133 33.153 127.172 33.1314C127.234 33.0884 127.294 33.0414 127.35 32.9906C127.409 32.935 127.462 32.8733 127.508 32.8066C127.531 32.7719 127.555 32.7416 127.577 32.707L127.631 32.5987C127.758 32.3249 127.839 32.0324 127.871 31.7325C127.9 31.5128 127.914 31.2914 127.915 31.0699C127.915 30.9075 127.915 30.8144 127.915 30.8144C127.939 30.8969 127.958 30.9808 127.973 31.0655C128.017 31.2889 128.04 31.5158 128.043 31.7433C128.043 31.8978 128.032 32.052 128.008 32.2046C127.984 32.3795 127.937 32.5506 127.869 32.7135L127.811 32.8412C127.789 32.8845 127.761 32.9235 127.735 32.9668C127.684 33.0521 127.621 33.13 127.549 33.1985C127.472 33.2728 127.388 33.3395 127.298 33.3977C127.254 33.4216 127.213 33.4389 127.172 33.4584L127.109 33.4887L127.079 33.5038H127.062H127.042C126.837 33.5688 126.617 33.5688 126.412 33.5038C126.218 33.4431 126.041 33.3352 125.899 33.1898C125.678 32.9422 125.507 32.6549 125.394 32.3432C125.315 32.1316 125.252 31.9145 125.206 31.6935C125.173 31.5354 125.165 31.4423 125.165 31.4423Z" fill="#1C171E"/>
<path d="M132.391 30.0174L132.486 30.2556C132.547 30.405 132.644 30.615 132.772 30.8554C132.911 31.1259 133.09 31.3734 133.305 31.5895C133.418 31.6993 133.555 31.7822 133.705 31.832C133.855 31.8745 134.015 31.8692 134.162 31.8169H134.177H134.166L134.199 31.8017L134.262 31.7735C134.303 31.7541 134.348 31.7367 134.385 31.7151C134.448 31.6726 134.508 31.6256 134.565 31.5743C134.623 31.5182 134.676 31.4565 134.723 31.3903C134.745 31.3556 134.771 31.3253 134.792 31.2907L134.846 31.1824C134.973 30.9086 135.054 30.6161 135.087 30.3162C135.114 30.0964 135.128 29.8751 135.128 29.6536C135.128 29.4912 135.128 29.3981 135.128 29.3981C135.152 29.4807 135.171 29.5645 135.186 29.6492C135.23 29.8725 135.253 30.0995 135.253 30.327C135.255 30.4814 135.244 30.6356 135.221 30.7883C135.195 30.9624 135.148 31.1327 135.08 31.295L135.024 31.4249C135 31.4661 134.974 31.5072 134.948 31.5483C134.897 31.6343 134.834 31.7129 134.762 31.7822C134.685 31.8565 134.601 31.9232 134.511 31.9814C134.467 32.0052 134.426 32.0226 134.385 32.0421L134.322 32.0724L134.29 32.0875H134.27H134.253C134.048 32.1525 133.828 32.1525 133.623 32.0875C133.433 32.0211 133.263 31.9088 133.127 31.7606C132.906 31.5135 132.734 31.226 132.622 30.9139C132.541 30.703 132.478 30.4857 132.434 30.2642C132.415 30.1828 132.401 30.1004 132.391 30.0174Z" fill="#1C171E"/>
<path d="M129.496 31.3188C129.474 31.7782 129.42 32.2354 129.335 32.6874C129.294 32.9039 129.251 33.1356 129.201 33.3587C129.151 33.5817 129.095 33.8048 129.036 34.0256L128.98 33.9C129.485 34.2054 129.983 34.5172 130.466 34.8572C129.922 34.6276 129.394 34.3678 128.87 34.1014L128.798 34.0668L128.811 33.978C128.848 33.7614 128.887 33.5254 128.935 33.3024C128.982 33.0793 129.03 32.8563 129.084 32.6333C129.192 32.1864 129.329 31.7473 129.496 31.3188Z" fill="#D15A5A"/>
<path d="M129.381 36.1996C129.381 36.1996 129.459 36.2256 129.597 36.2603C129.664 36.2798 129.747 36.2993 129.842 36.3231C129.937 36.3469 130.043 36.3642 130.158 36.3902C130.273 36.4162 130.401 36.4357 130.535 36.4487C130.669 36.4617 130.81 36.4768 130.957 36.4812C131.106 36.4887 131.255 36.4887 131.403 36.4812C131.479 36.4812 131.555 36.4617 131.62 36.453C131.693 36.4459 131.765 36.4328 131.836 36.414C131.985 36.3852 132.13 36.3402 132.269 36.2798C132.339 36.2495 132.41 36.2256 132.475 36.1953L132.661 36.0849C132.782 36.0162 132.894 35.9349 132.997 35.8423C133.047 35.799 133.101 35.7622 133.144 35.7168L133.266 35.5803C133.343 35.5048 133.416 35.4237 133.482 35.3378L133.627 35.1213L133.757 34.9437L133.675 35.1602C133.647 35.2252 133.612 35.3053 133.571 35.3963C133.52 35.4959 133.461 35.5909 133.393 35.6799L133.285 35.8402C133.241 35.8944 133.194 35.945 133.142 35.9918C133.042 36.1048 132.927 36.2039 132.8 36.2863L132.601 36.4227C132.529 36.4617 132.454 36.492 132.384 36.5266C132.231 36.595 132.072 36.6473 131.908 36.6825C131.826 36.7029 131.743 36.7159 131.659 36.7215C131.576 36.7215 131.494 36.7453 131.412 36.7475C131.252 36.751 131.092 36.7444 130.933 36.728C130.787 36.7153 130.642 36.6907 130.5 36.6544C130.362 36.6284 130.236 36.5808 130.119 36.5483C129.86 36.4623 129.612 36.3453 129.381 36.1996Z" fill="#D15A5A"/>
<path d="M130.832 29.3721C130.823 29.2742 130.823 29.1756 130.832 29.0776C130.853 28.8164 130.91 28.5593 131.001 28.3132C131.133 27.949 131.341 27.6169 131.611 27.3388C131.774 27.1748 131.96 27.0355 132.163 26.9252C132.38 26.812 132.613 26.7331 132.854 26.6913C133.09 26.6578 133.33 26.6578 133.567 26.6913C133.679 26.7043 133.791 26.7267 133.9 26.7584C134.006 26.7845 134.109 26.8186 134.21 26.8602C134.306 26.8948 134.4 26.936 134.491 26.9836C134.58 27.0313 134.669 27.0724 134.747 27.1244L134.963 27.2738L135.16 27.4276C135.274 27.5189 135.381 27.618 135.481 27.7242C135.559 27.802 135.631 27.8852 135.697 27.9732C135.817 28.1183 135.875 28.2071 135.875 28.2071C135.875 28.2071 135.769 28.179 135.598 28.114L135.292 28.0036C135.176 27.9624 135.048 27.9104 134.907 27.865L134.69 27.7892L134.459 27.7199C134.381 27.6939 134.301 27.6744 134.218 27.6549C134.137 27.6311 134.055 27.6116 133.972 27.5965C133.805 27.5613 133.637 27.5389 133.467 27.5293C133.303 27.519 133.138 27.5263 132.975 27.551C132.818 27.5792 132.664 27.6242 132.516 27.6852C132.37 27.7503 132.23 27.8293 132.098 27.9213C131.846 28.1095 131.618 28.3276 131.418 28.5709C131.228 28.7874 131.083 29.004 130.985 29.1426L130.832 29.3721Z" fill="#1C171E"/>
<path d="M128.495 29.7617L128.278 29.6318C128.144 29.5517 127.956 29.4412 127.733 29.3221C127.495 29.1896 127.248 29.0759 126.992 28.9822C126.862 28.9355 126.728 28.9 126.592 28.8761C126.462 28.8522 126.331 28.8442 126.2 28.8522C126.07 28.8591 125.942 28.8824 125.819 28.9215C125.756 28.941 125.695 28.967 125.632 28.9887C125.57 29.0103 125.509 29.0471 125.45 29.0796C125.331 29.1459 125.214 29.2182 125.102 29.2962C124.996 29.3806 124.885 29.4564 124.792 29.5387C124.699 29.621 124.604 29.6924 124.524 29.7552L124.307 29.9371C124.245 29.9945 124.18 30.0487 124.112 30.0995C124.124 30.015 124.14 29.9312 124.16 29.8483C124.18 29.7529 124.208 29.6594 124.244 29.569C124.283 29.4481 124.333 29.3308 124.392 29.2182C124.462 29.0812 124.543 28.9501 124.634 28.8263C124.744 28.6855 124.867 28.5557 125.002 28.4386C125.157 28.309 125.33 28.2025 125.515 28.1225C125.916 27.9525 126.362 27.9258 126.78 28.0467C126.971 28.0998 127.154 28.1785 127.324 28.2806C127.606 28.4495 127.854 28.6699 128.055 28.9302C128.195 29.1071 128.312 29.3006 128.404 29.5062C128.442 29.5886 128.472 29.6741 128.495 29.7617Z" fill="#1C171E"/>
<path d="M114.682 50.0239C114.682 50.0239 118.489 69.4305 122.298 69.2486C126.107 69.0667 123.38 51.1131 123.38 51.1131L114.682 50.0239Z" fill="#F29083"/>
<path d="M114.682 50.0239C114.682 50.0239 118.489 69.4305 122.298 69.2486C126.107 69.0667 123.38 51.1131 123.38 51.1131L114.682 50.0239Z" stroke="#D15A5A" stroke-width="0.6" stroke-miterlimit="10"/>
<path d="M151.41 44.9675C151.41 44.9675 152.434 64.7185 148.694 65.4677C144.955 66.2169 143.231 48.1442 143.231 48.1442L151.41 44.9675Z" fill="#F29083"/>
<path d="M151.41 44.9675C151.41 44.9675 152.434 64.7185 148.694 65.4677C144.955 66.2169 143.231 48.1442 143.231 48.1442L151.41 44.9675Z" stroke="#D15A5A" stroke-width="0.6" stroke-miterlimit="10"/>
<path d="M125.201 61.6328C125.201 61.6328 112.142 74.1469 113.049 96.6371H150.775C150.775 96.6371 156.405 71.6068 145.877 58.0035C135.349 44.4002 125.201 61.6328 125.201 61.6328Z" fill="#FC6A5A"/>
<path d="M132.926 68.4171C137.202 69.6384 141.613 70.3379 146.018 70.9247C147.783 71.1607 149.597 71.3773 151.431 71.5353C150.55 66.6588 148.865 61.871 145.875 58.0035C135.355 44.4002 125.199 61.6328 125.199 61.6328C124.21 62.6369 123.298 63.7132 122.469 64.8528C125.936 66.1044 129.383 67.4037 132.926 68.4171Z" fill="#EA4134"/>
<path d="M125.201 61.6328C125.201 61.6328 112.142 74.1469 113.049 96.6371H150.775C150.775 96.6371 156.405 71.6068 145.877 58.0035C135.349 44.4002 125.201 61.6328 125.201 61.6328Z" stroke="#A50000" stroke-width="0.6" stroke-miterlimit="10"/>
<path d="M114.136 40.5934L113.956 34.6081C113.956 34.6081 129.548 35.3335 131.73 41.6804C131.73 41.6804 138.985 33.5189 147.321 32.068L150.405 47.8476L114.136 40.5934Z" fill="#FDDEC0"/>
<path d="M111.96 35.6952L129.19 39.3223L130.823 63.8069L112.685 59.2725L111.96 35.6952Z" fill="#0096C8"/>
<path d="M111.96 35.6952L129.19 39.3223L130.823 63.8069L112.685 59.2725L111.96 35.6952Z" stroke="#1B4268" stroke-width="0.5" stroke-miterlimit="10"/>
<path d="M150.979 33.469L134.392 39.3742L136.059 63.8566L153.424 56.9316L150.979 33.469Z" fill="#0096C8"/>
<path d="M150.979 33.469L134.392 39.3742L136.059 63.8566L153.424 56.9316L150.979 33.469Z" stroke="#1B4268" stroke-width="0.5" stroke-miterlimit="10"/>
<path d="M129.19 39.3222L134.996 39.1403L136.447 65.078C136.447 65.078 132.999 66.3469 129.916 64.8961L129.19 39.3222Z" fill="#0096C8"/>
<path d="M129.19 39.3222L134.994 39.0884H135.043V39.1382L135.446 45.6193L135.84 52.1027L136.587 65.0693V65.1797L136.486 65.2165C136.217 65.309 135.943 65.3864 135.665 65.4483C135.39 65.5132 135.113 65.5652 134.835 65.6107L134.415 65.6648C134.275 65.6843 134.134 65.6908 133.982 65.7038C133.831 65.7168 133.701 65.7211 133.549 65.7254C133.398 65.7298 133.266 65.7363 133.116 65.7254C132.967 65.7146 132.835 65.7254 132.683 65.7254L132.25 65.6908C132.109 65.6908 131.971 65.6518 131.83 65.6345C131.689 65.6172 131.548 65.5933 131.412 65.5587L130.996 65.4634L130.591 65.3378L130.388 65.2729L130.191 65.1906L129.861 65.0217L129.786 64.9913V64.9026L129.615 58.508L129.463 52.1135L129.32 45.7189L129.19 39.3222ZM129.19 39.3222L129.428 45.7146L129.645 52.107L129.861 58.4994L130.052 64.8917L129.974 64.7726L130.353 64.9285L130.541 65.0065L130.738 65.0671L131.128 65.1884L131.529 65.2793C131.661 65.3118 131.797 65.3313 131.932 65.3508C132.066 65.3703 132.202 65.3963 132.339 65.4028L132.748 65.4353C132.887 65.4353 133.023 65.4353 133.159 65.4353C133.296 65.4353 133.434 65.4353 133.571 65.4353C133.707 65.4353 133.846 65.4353 133.982 65.4136C134.119 65.392 134.257 65.392 134.392 65.3746L134.801 65.3183C135.072 65.275 135.342 65.223 135.609 65.1581C135.874 65.0999 136.137 65.0277 136.395 64.9415L136.299 65.0888L135.596 52.1178L135.275 45.6302L134.955 39.1447L135.007 39.1923L129.19 39.3222Z" fill="#1B4268"/>
<path d="M110.128 46.8449C110.128 46.8449 109.608 43.3802 110.691 42.8995C111.774 42.4187 119.502 45.3616 112.41 44.543C112.41 44.543 124.457 47.2152 112.772 46.1433C112.772 46.1433 122.423 47.8973 113.049 47.304C113.049 47.304 120.628 49.1229 112.605 48.2741L112.293 50.7427C112.293 50.7427 111.343 51.362 110.128 46.8449Z" fill="#FFAC9D"/>
<path d="M110.128 46.845C110.046 46.3382 109.995 45.827 109.974 45.314C109.945 44.7985 109.98 44.2813 110.078 43.7744C110.125 43.5115 110.232 43.2631 110.392 43.049C110.479 42.9379 110.596 42.8544 110.73 42.8086C110.863 42.7759 111 42.7628 111.137 42.7696C111.655 42.8034 112.169 42.8927 112.668 43.036C113.166 43.1691 113.657 43.3296 114.138 43.5167C114.381 43.6099 114.619 43.7162 114.851 43.835C114.969 43.897 115.084 43.9657 115.195 44.0407C115.254 44.0803 115.309 44.1253 115.36 44.175C115.428 44.2361 115.475 44.3172 115.494 44.4067C115.498 44.4385 115.496 44.4707 115.487 44.5016C115.478 44.5325 115.464 44.5613 115.444 44.5864C115.414 44.626 115.375 44.6585 115.331 44.6817C115.263 44.7166 115.19 44.7421 115.115 44.7575C114.983 44.7848 114.849 44.8029 114.714 44.8117C114.45 44.8268 114.19 44.8246 113.932 44.8117C113.415 44.7943 112.902 44.7424 112.391 44.6861L112.441 44.3981C113.331 44.5973 114.216 44.8073 115.1 45.0347C115.533 45.1495 115.983 45.2686 116.423 45.4007C116.639 45.4656 116.856 45.5349 117.072 45.6172C117.295 45.6919 117.512 45.7816 117.722 45.8857C117.782 45.9165 117.839 45.9527 117.893 45.994L117.939 46.0351C117.957 46.0554 117.974 46.0771 117.988 46.1001C118.008 46.1369 118.02 46.1775 118.023 46.2192C118.023 46.2691 118.007 46.3178 117.978 46.3578C117.915 46.4292 117.83 46.4773 117.737 46.4942C117.67 46.5115 117.609 46.5202 117.549 46.531C117.316 46.557 117.082 46.5693 116.847 46.5678C116.386 46.5678 115.929 46.5505 115.472 46.5245C114.56 46.4682 113.653 46.3903 112.746 46.308L112.787 45.9961C113.502 46.1304 114.212 46.2733 114.92 46.4292C115.275 46.5072 115.63 46.5895 115.983 46.6804C116.159 46.7259 116.334 46.7757 116.512 46.8277C116.693 46.8799 116.87 46.945 117.042 47.0226C117.095 47.0469 117.145 47.0782 117.189 47.1157C117.236 47.1534 117.266 47.2077 117.274 47.2673C117.274 47.3043 117.264 47.3406 117.246 47.3728C117.228 47.4051 117.201 47.4321 117.17 47.4513C117.069 47.4992 116.96 47.5279 116.849 47.5358C116.659 47.5553 116.477 47.5596 116.293 47.5639C115.927 47.5639 115.563 47.5639 115.21 47.5423C114.483 47.512 113.759 47.4643 113.045 47.4123L113.075 47.1958C113.657 47.3452 114.233 47.5011 114.807 47.6744C115.093 47.761 115.379 47.8519 115.663 47.958C115.803 48.01 115.944 48.0663 116.083 48.1334C116.16 48.1659 116.233 48.2089 116.299 48.2612C116.32 48.2788 116.337 48.3001 116.349 48.324C116.361 48.3417 116.367 48.3624 116.367 48.3835C116.367 48.4047 116.361 48.4254 116.349 48.4431C116.314 48.4812 116.266 48.5064 116.215 48.5146C116.063 48.5426 115.908 48.5549 115.754 48.5514C115.602 48.5514 115.453 48.5514 115.303 48.5384C115.004 48.5211 114.706 48.4972 114.407 48.4712C113.811 48.4171 113.218 48.3435 112.625 48.2699C113.221 48.3218 113.817 48.3659 114.413 48.402C114.71 48.4193 115.009 48.4344 115.308 48.4409C115.455 48.4409 115.604 48.4409 115.741 48.4409C115.886 48.4418 116.031 48.4265 116.174 48.3955C116.196 48.3919 116.218 48.383 116.237 48.3695C116.237 48.3695 116.237 48.389 116.237 48.3846C116.237 48.3803 116.237 48.3716 116.217 48.363C116.161 48.3222 116.101 48.288 116.037 48.2612C115.903 48.2014 115.766 48.1487 115.626 48.1031C115.344 48.01 115.059 47.9277 114.773 47.8454C114.199 47.6852 113.619 47.5401 113.04 47.4123L113.073 47.1958C113.794 47.2348 114.517 47.2673 115.238 47.2846C115.6 47.2846 115.959 47.2846 116.321 47.2846C116.501 47.2846 116.678 47.2694 116.849 47.2478C116.919 47.2419 116.987 47.2266 117.053 47.2023C117.042 47.2121 117.034 47.2243 117.029 47.2378C117.023 47.2513 117.021 47.2658 117.023 47.2803C117.023 47.3322 117.044 47.3279 117.036 47.3236C117.009 47.3051 116.98 47.2884 116.951 47.2738C116.792 47.205 116.629 47.1471 116.462 47.1005C116.291 47.0507 116.117 47.0031 115.944 46.9598C115.596 46.871 115.245 46.793 114.892 46.7151C114.186 46.5635 113.476 46.4249 112.765 46.2971L112.809 45.9853C113.714 46.0633 114.619 46.1369 115.526 46.1867C115.979 46.2084 116.431 46.2257 116.88 46.2278C117.097 46.2284 117.313 46.2183 117.529 46.1975C117.579 46.1908 117.628 46.1814 117.677 46.1694C117.718 46.1694 117.767 46.1282 117.735 46.1586C117.735 46.1586 117.711 46.1954 117.72 46.2192C117.715 46.2318 117.715 46.2456 117.72 46.2582L117.703 46.243C117.665 46.2155 117.626 46.1902 117.586 46.1672C117.389 46.0707 117.187 45.9868 116.979 45.916C116.763 45.8424 116.546 45.7731 116.33 45.6995C115.897 45.5674 115.463 45.4461 115.03 45.3292C114.153 45.0982 113.271 44.8817 112.384 44.6796L112.434 44.3916C112.941 44.4522 113.447 44.502 113.95 44.5301C114.201 44.5467 114.452 44.5503 114.703 44.541C114.825 44.537 114.946 44.524 115.065 44.502C115.116 44.4917 115.165 44.4757 115.212 44.4543C115.225 44.4485 115.237 44.4405 115.247 44.4305C115.234 44.396 115.213 44.3649 115.186 44.3396C115.145 44.2995 115.101 44.2626 115.054 44.2291C114.954 44.1581 114.849 44.0938 114.74 44.0364C114.518 43.9163 114.29 43.8086 114.056 43.7138C113.586 43.52 113.106 43.353 112.618 43.2136C112.373 43.1443 112.127 43.0815 111.877 43.0295C111.632 42.9747 111.383 42.9378 111.133 42.9191C111.014 42.9098 110.894 42.9164 110.777 42.9385C110.665 42.9725 110.566 43.0388 110.492 43.1291C110.339 43.3244 110.234 43.5517 110.182 43.7939C110.072 44.2914 110.022 44.8003 110.035 45.3097C110.037 45.8228 110.069 46.3353 110.128 46.845Z" fill="#D15A5A"/>
<path d="M154.764 42.7914C154.764 42.7914 155.414 39.3526 154.355 38.8264C153.296 38.3002 145.453 40.9442 152.573 40.4029C152.573 40.4029 140.431 42.6051 152.139 41.988C152.139 41.988 142.425 43.3652 151.819 43.1357C151.819 43.1357 144.175 44.6515 152.224 44.1231L152.44 46.6025C152.44 46.6025 153.369 47.2651 154.764 42.7914Z" fill="#FFAC9D"/>
<path d="M154.764 42.7913C154.843 42.2856 154.893 41.7759 154.916 41.2646C154.948 40.7576 154.918 40.2486 154.827 39.7488C154.785 39.5048 154.688 39.2736 154.543 39.0732C154.472 38.9808 154.376 38.9109 154.266 38.8718C154.15 38.8443 154.032 38.8327 153.913 38.8372C153.661 38.8474 153.41 38.8749 153.162 38.9195C152.913 38.9606 152.664 39.0147 152.417 39.0754C151.922 39.196 151.435 39.3442 150.957 39.5193C150.721 39.6081 150.485 39.7033 150.262 39.8138C150.151 39.8675 150.044 39.9282 149.942 39.9957C149.894 40.027 149.85 40.0617 149.807 40.0996C149.778 40.1229 149.755 40.1535 149.74 40.1884L149.775 40.2144C149.821 40.2386 149.871 40.2561 149.922 40.2664C150.04 40.2938 150.159 40.3119 150.279 40.3205C150.53 40.34 150.782 40.3465 151.033 40.34C151.54 40.34 152.051 40.2988 152.56 40.2599L152.599 40.5522C151.706 40.7189 150.814 40.9008 149.929 41.0979C149.496 41.1975 149.045 41.3014 148.608 41.4184C148.391 41.4747 148.175 41.5353 147.958 41.6024C147.748 41.6612 147.542 41.7335 147.341 41.819C147.3 41.8396 147.26 41.8627 147.222 41.8883L147.205 41.9034C147.209 41.898 147.212 41.8917 147.214 41.885C147.216 41.8783 147.216 41.8713 147.215 41.8645C147.215 41.8406 147.202 41.8082 147.202 41.8038C147.202 41.7995 147.22 41.8038 147.261 41.8168C147.309 41.8316 147.358 41.8425 147.408 41.8493C147.623 41.8809 147.84 41.9004 148.058 41.9078C148.507 41.9208 148.959 41.9208 149.413 41.9078C150.318 41.8948 151.228 41.858 152.135 41.8146L152.166 42.1265C151.451 42.2282 150.736 42.343 150.026 42.4621C149.671 42.5249 149.316 42.592 148.965 42.6657C148.787 42.7025 148.614 42.7415 148.441 42.7869C148.272 42.8262 148.106 42.8775 147.945 42.9407C147.915 42.9526 147.886 42.9686 147.861 42.9883C147.861 42.9883 147.861 42.9883 147.874 42.945C147.877 42.9304 147.876 42.9151 147.871 42.9009C147.866 42.8867 147.857 42.8743 147.845 42.8649C147.911 42.8909 147.979 42.909 148.049 42.919C148.218 42.9472 148.396 42.9623 148.573 42.9753C148.93 42.9991 149.292 43.01 149.656 43.0165C150.377 43.0295 151.1 43.0165 151.821 43.0165L151.845 43.233C151.26 43.3456 150.676 43.469 150.095 43.6076C149.807 43.6769 149.517 43.7484 149.229 43.8242C149.088 43.8639 148.948 43.9109 148.811 43.9649C148.747 43.9889 148.685 44.0202 148.627 44.058L148.606 44.0797C148.606 44.0797 148.606 44.0667 148.606 44.0645C148.624 44.0784 148.644 44.0887 148.666 44.0949C148.808 44.1289 148.953 44.1492 149.099 44.1555C149.247 44.1663 149.396 44.1706 149.545 44.175C149.844 44.175 150.141 44.175 150.44 44.175C151.037 44.162 151.635 44.1411 152.233 44.1122C151.637 44.1642 151.042 44.214 150.442 44.2443C150.143 44.2594 149.844 44.2724 149.545 44.2768C149.396 44.2768 149.244 44.2768 149.095 44.2768C148.94 44.2762 148.787 44.2588 148.636 44.2248C148.585 44.215 148.538 44.1883 148.504 44.149C148.492 44.1309 148.486 44.1098 148.486 44.0884C148.486 44.0669 148.492 44.0458 148.504 44.0277C148.518 44.0049 148.535 43.9844 148.556 43.9671C148.623 43.9194 148.696 43.8794 148.772 43.848C148.915 43.7852 149.056 43.7354 149.205 43.6878C149.491 43.5946 149.779 43.5124 150.072 43.4387C150.654 43.2871 151.237 43.1529 151.823 43.0295L151.847 43.246C151.122 43.2698 150.399 43.2893 149.671 43.2915C149.307 43.2915 148.946 43.2915 148.588 43.2698C148.404 43.259 148.222 43.2482 148.032 43.22C147.921 43.2076 147.814 43.1746 147.716 43.1226C147.685 43.1024 147.66 43.0747 147.643 43.0421C147.626 43.0095 147.617 42.9731 147.618 42.9363C147.622 42.9065 147.632 42.8778 147.648 42.852C147.663 42.8263 147.684 42.8041 147.709 42.7869C147.755 42.7515 147.805 42.7224 147.858 42.7003C148.034 42.6292 148.214 42.5713 148.398 42.5271C148.575 42.4794 148.755 42.4383 148.933 42.3993C149.288 42.3214 149.645 42.2542 150.002 42.1828C150.717 42.0528 151.434 41.9352 152.153 41.8298L152.183 42.1438C151.271 42.1936 150.362 42.2369 149.448 42.2564C148.991 42.2564 148.534 42.2694 148.073 42.2564C147.839 42.2473 147.605 42.2257 147.373 42.1914C147.313 42.1784 147.252 42.1676 147.187 42.1481C147.094 42.1263 147.012 42.0746 146.951 42.0009C146.923 41.9595 146.908 41.9102 146.91 41.8601C146.915 41.8187 146.929 41.7789 146.951 41.7432C146.967 41.7209 146.984 41.6999 147.003 41.6804L147.051 41.6414C147.105 41.6021 147.163 41.568 147.224 41.5396C147.439 41.4424 147.662 41.3614 147.889 41.2971C148.105 41.23 148.322 41.1693 148.554 41.113C148.987 40.9983 149.441 40.8965 149.887 40.7991C150.78 40.6042 151.674 40.4288 152.573 40.2664L152.609 40.5544C152.096 40.5912 151.581 40.6237 151.063 40.6215C150.806 40.6215 150.546 40.6215 150.284 40.5868C150.149 40.5739 150.015 40.5508 149.883 40.5175C149.807 40.5002 149.734 40.4718 149.667 40.4331C149.623 40.4087 149.585 40.3746 149.556 40.3335C149.52 40.2804 149.505 40.2153 149.515 40.1516C149.539 40.0665 149.589 39.9909 149.658 39.935C149.711 39.8878 149.769 39.8451 149.829 39.8073C149.942 39.7362 150.059 39.6726 150.18 39.6167C150.415 39.5068 150.657 39.41 150.903 39.3266C151.391 39.1542 151.889 39.0096 152.393 38.8935C152.897 38.7667 153.413 38.6941 153.933 38.6769C154.069 38.6763 154.206 38.6952 154.337 38.7332C154.469 38.7849 154.583 38.8727 154.667 38.9866C154.817 39.2067 154.915 39.4587 154.952 39.7228C155.03 40.2338 155.044 40.7523 154.996 41.2668C154.949 41.7791 154.872 42.2882 154.764 42.7913Z" fill="#D15A5A"/>
<path d="M67.4903 66.572L64.6514 96.6369H92.5856L94.004 67.2887L67.4903 66.572Z" fill="#FDDEC0"/>
<path d="M93.6012 75.6192L94.0039 67.2887L67.4903 66.572L66.6674 75.2836L93.6012 75.6192Z" fill="#EFC8A8"/>
<path d="M79.1599 88.2027L78.5211 96.6371H92.5856L93.0425 87.1612L79.1599 88.2027Z" fill="#EFC8A8"/>
<path d="M90.8056 87.2693L84.9871 87.7999L82.0789 88.0641C81.1088 88.1528 80.13 88.2438 79.1685 88.3044L79.2617 88.2113L78.612 96.6435L78.4431 96.6305L79.0646 88.1853V88.0987H79.1512C80.1213 88.0056 81.1001 87.9385 82.0637 87.8822L84.9784 87.6808L90.8056 87.2693Z" fill="#C98D61"/>
<path d="M93.664 73.1723L92.5856 96.637" stroke="#C98D61" stroke-width="0.6" stroke-miterlimit="10"/>
<path d="M66.7692 72.5228L64.6514 96.6371" stroke="#C98D61" stroke-width="0.6" stroke-miterlimit="10"/>
<path d="M68.7636 30.7558L74.3071 30.2231C74.3071 30.2231 72.4838 4.23783 73.8502 3.42579C75.2166 2.61375 84.777 3.15727 86.2777 7.47949C86.9273 9.38508 90.7796 26.3188 82.5964 28.0295L82.6787 30.6714C82.6787 30.6714 85.784 30.5631 88.3565 30.5739C90.929 30.5847 87.2738 37.1893 78.6337 36.4942C69.9936 35.7991 68.7636 30.7558 68.7636 30.7558Z" fill="#FFAC9D"/>
<path d="M88.3543 30.5739C85.7818 30.5739 82.6765 30.6713 82.6765 30.6713L82.5943 28.0295C77.1633 27.9623 74.7987 23.3781 73.6986 19.3677C73.926 24.9069 74.3071 30.2296 74.3071 30.2296L68.7636 30.7623C68.7636 30.7623 69.9936 35.8034 78.6315 36.5007C87.2694 37.1979 90.9269 30.5912 88.3543 30.5739Z" fill="#F29083"/>
<path d="M73.8762 15.8423C73.8762 15.8423 72.2954 13.6249 71.1975 15.916C69.7878 18.8631 72.7133 21.9294 74.6947 19.6817C76.6761 17.4339 73.8762 15.8423 73.8762 15.8423Z" fill="#FFAC9D"/>
<path d="M73.7766 21.3122L73.9108 23.5405C73.9542 24.2832 73.9975 25.026 74.0538 25.7666L74.2097 27.9926C74.2681 28.7354 74.3201 29.4759 74.3851 30.2165V30.2902H74.3115L68.7701 30.8445L68.8567 30.7232C69.0595 31.3379 69.368 31.9124 69.7684 32.4209C70.165 32.9388 70.6247 33.4051 71.1369 33.809C72.1755 34.6088 73.3489 35.216 74.6016 35.602C75.2266 35.7977 75.8621 35.9582 76.505 36.0827C77.1547 36.2018 77.8043 36.2992 78.4539 36.3512C79.7587 36.4829 81.0754 36.434 82.3669 36.2061C83.661 35.9815 84.9065 35.5346 86.0481 34.8852C86.615 34.5612 87.1444 34.1755 87.6268 33.7354C88.1129 33.3031 88.5209 32.7904 88.8329 32.2196C88.9866 31.9413 89.0755 31.6319 89.0928 31.3144C89.1003 31.161 89.0586 31.0093 88.9737 30.8813C88.8817 30.7664 88.7507 30.6893 88.6055 30.6648C88.4482 30.6379 88.2886 30.6277 88.1291 30.6345H87.6354H86.6458C85.3249 30.6345 84.0054 30.6525 82.6874 30.6886H82.6549V30.6626L82.5055 28.0229H82.6939V30.6648L82.6679 30.641C83.9874 30.5875 85.3068 30.5471 86.6263 30.5197L87.6159 30.5067H88.1118C88.2819 30.4951 88.4527 30.5039 88.6207 30.5327C88.8044 30.564 88.9702 30.6619 89.0863 30.8077C89.19 30.9576 89.2438 31.1365 89.24 31.3187C89.2281 31.6629 89.1362 31.9995 88.9715 32.3018C88.6577 32.8958 88.2422 33.4301 87.7437 33.8805C87.2551 34.3353 86.7177 34.7348 86.1413 35.0714C84.9855 35.7417 83.7213 36.2042 82.4059 36.4378C81.0949 36.6732 79.7578 36.7264 78.4323 36.5959C77.7697 36.5382 77.1121 36.4487 76.4596 36.3274C75.8062 36.2037 75.1611 36.0395 74.528 35.8358C73.2531 35.4355 72.06 34.8107 71.0048 33.9909C70.4812 33.5742 70.0114 33.0941 69.6059 32.5617C69.1913 32.0285 68.8732 31.4268 68.6661 30.7839L68.6337 30.6734H68.7528L74.2985 30.1581L74.2313 30.2382C74.175 29.4954 74.1317 28.7527 74.0819 28.0099C74.0321 27.2672 73.9996 26.5245 73.9607 25.7817C73.9217 25.039 73.8914 24.2941 73.861 23.5513L73.7766 21.3122Z" fill="#D15A5A"/>
<path d="M71.1196 4.59076C71.1196 4.59076 69.7749 -1.18663 66.5505 0.424457C63.3262 2.03554 67.4968 5.79908 67.4968 5.79908C67.4968 5.79908 66.8255 1.09791 64.9438 4.59076C63.062 8.08362 70.0434 9.02342 71.1196 4.59076Z" fill="#76413B"/>
<path d="M66.5505 0.424457C65.0347 1.18669 65.1538 2.42749 65.7103 3.52537C65.3918 3.83212 65.1301 4.19281 64.9373 4.59076C63.0577 8.08362 70.0434 9.02342 71.1196 4.59076C71.1196 4.59076 69.7749 -1.18663 66.5505 0.424457Z" stroke="#54201C" stroke-width="1.3" stroke-linecap="round" stroke-linejoin="round"/>
<path d="M87.7328 17.2196C87.7328 17.2196 87.9126 21.2495 86.8385 21.8775C85.7644 22.5054 88.1811 18.3846 84.9567 18.3846C81.7324 18.3846 78.5968 17.4427 78.1508 19.1447C77.7047 20.8467 78.3673 23.1313 76.3145 20.8922C75.1235 19.5929 74.8896 15.0715 74.9048 11.4812C75.7709 10.9745 76.8298 9.79432 76.269 7.09835C76.269 7.09835 81.1954 3.33698 86.2777 7.47947C86.2777 7.47947 85.7623 0.983149 76.9858 1.1867C69.1902 1.36643 67.0421 10.2339 71.4314 15.3378C71.4314 15.3378 72.6895 14.4262 73.5773 15.4093C73.4344 19.1339 73.9 27.3625 80.7016 28.1854C90.8554 29.4284 88.5405 22.0572 87.7328 17.2196Z" fill="#965450"/>
<path d="M86.2777 7.47949C86.2777 7.47949 86.2647 7.35606 86.217 7.13085C86.1467 6.80512 86.0519 6.48516 85.9334 6.17373C85.7526 5.69057 85.5179 5.22932 85.2339 4.79867C84.8683 4.24058 84.4241 3.73808 83.9152 3.30669C83.6244 3.06205 83.3161 2.83913 82.9927 2.63973C82.6454 2.43265 82.2835 2.251 81.91 2.09621C81.0931 1.77422 80.239 1.55597 79.3677 1.44657C78.4348 1.3222 77.4919 1.29028 76.5527 1.35129C75.5861 1.40436 74.6362 1.62643 73.7463 2.00742C72.8639 2.39612 72.0681 2.95711 71.4054 3.65749C70.7695 4.34514 70.2652 5.14371 69.9178 6.01349C69.5951 6.82943 69.393 7.68801 69.3179 8.56221C69.2508 9.34794 69.285 10.139 69.4197 10.916C69.5374 11.574 69.7194 12.2188 69.9632 12.8411C70.0217 12.9775 70.078 13.1118 70.13 13.2417C70.1819 13.3717 70.2512 13.4864 70.3097 13.6034C70.4158 13.8394 70.5501 14.0364 70.654 14.2248C70.8257 14.5104 71.0136 14.7859 71.217 15.0499L71.4336 15.3292L71.2062 15.0585C70.9909 14.8024 70.7913 14.5333 70.6085 14.253C70.4981 14.0689 70.3595 13.8719 70.2426 13.638L70.0499 13.2785C69.9936 13.1508 69.9329 13.0187 69.8701 12.8801C69.2776 11.5171 69.0185 10.0324 69.1144 8.54922C69.1716 7.64994 69.3666 6.76479 69.6926 5.9247C70.0442 5.02464 70.558 4.19673 71.2084 3.48209C71.8914 2.74856 72.7146 2.15949 73.6293 1.74974C74.5476 1.3573 75.5274 1.12864 76.5245 1.07412C77.4816 1.01752 78.4419 1.05524 79.3916 1.18672C80.2823 1.30771 81.1527 1.54807 81.9793 1.90132C82.3616 2.06567 82.7308 2.25896 83.0836 2.47949C83.4109 2.68927 83.7221 2.92306 84.0148 3.17893C84.5244 3.62809 84.9626 4.15238 85.314 4.73371C85.5864 5.17886 85.8079 5.65318 85.9745 6.14774C86.0838 6.46379 86.1671 6.78824 86.2235 7.11786C86.248 7.23736 86.266 7.35807 86.2777 7.47949Z" fill="#54201C"/>
<path d="M73.5774 15.4092C73.5774 15.4092 73.5774 15.537 73.5774 15.7817C73.5774 16.0264 73.5774 16.3815 73.5774 16.8341C73.5774 17.0615 73.5925 17.3105 73.6012 17.5833C73.6099 17.8562 73.6315 18.1528 73.664 18.4668C73.7212 19.17 73.8195 19.8692 73.9585 20.5608C74.1135 21.3789 74.3425 22.1813 74.6428 22.958C74.8083 23.3805 74.9992 23.7927 75.2144 24.1923C75.4428 24.6046 75.702 24.9991 75.9897 25.3724C76.5923 26.1536 77.3493 26.8022 78.2136 27.278C79.1142 27.7548 80.1051 28.0367 81.1218 28.1052C82.1372 28.2167 83.1618 28.2167 84.1772 28.1052C85.1711 27.9839 86.1434 27.6851 86.884 27.0961C87.5924 26.5153 88.0782 25.7074 88.2591 24.8094C88.435 23.9999 88.4962 23.1696 88.441 22.343C88.4041 21.5699 88.3067 20.864 88.2244 20.2403C88.1421 19.6167 88.0447 19.071 87.9711 18.6227C87.8216 17.7284 87.7545 17.2152 87.7545 17.2152C87.7545 17.2152 87.8498 17.7241 88.036 18.6141C88.127 19.0472 88.2374 19.5972 88.3522 20.2208C88.4805 20.9193 88.5723 21.6241 88.6272 22.3321C88.7016 23.1772 88.6571 24.0286 88.4951 24.8614C88.3996 25.3211 88.2345 25.7636 88.0057 26.1736C87.7638 26.6051 87.4411 26.986 87.0551 27.2953C86.2669 27.9298 85.2448 28.2481 84.2227 28.378C83.1853 28.4917 82.1382 28.4852 81.1023 28.3586C80.0543 28.2829 79.034 27.9878 78.1075 27.4924C77.2145 27.0007 76.437 26.3236 75.8273 25.5067C75.5381 25.1199 75.2789 24.7116 75.052 24.2854C74.8384 23.8766 74.6503 23.455 74.489 23.0229C74.1983 22.2325 73.9808 21.417 73.8394 20.5868C73.7172 19.8869 73.6362 19.1805 73.5969 18.4712C73.573 18.1572 73.5709 17.8605 73.56 17.5855C73.5492 17.3105 73.56 17.0615 73.56 16.8341C73.56 16.3794 73.5752 16.0242 73.5904 15.7817C73.6055 15.5392 73.5774 15.4092 73.5774 15.4092Z" fill="#54201C"/>
<path d="M83.1204 12.3387C83.1941 12.5661 83.2569 12.7978 83.324 13.0274C83.3911 13.2569 83.4496 13.4886 83.5124 13.7181C83.6308 14.1815 83.7441 14.6457 83.8524 15.1105C84.0689 16.0395 84.2573 16.975 84.424 17.9256L84.4414 18.0295L84.3418 18.0403C83.9087 18.0815 83.4756 18.1226 83.0425 18.1573C82.6094 18.1919 82.1763 18.2309 81.7432 18.2591C82.1763 18.1811 82.6094 18.1161 83.0425 18.0425C83.4756 17.9689 83.9087 17.9104 84.3418 17.8476L84.2616 17.9624C84.0234 17.0377 83.8134 16.1066 83.6228 15.1711C83.5304 14.7034 83.4424 14.2342 83.3586 13.7636C83.3197 13.5276 83.2785 13.2915 83.2439 13.0555C83.2092 12.8195 83.1486 12.5769 83.1204 12.3387Z" fill="#D15A5A"/>
<path d="M73.5124 19.6904C73.3734 19.6533 73.2379 19.6041 73.1075 19.5432C72.9695 19.4845 72.8421 19.4032 72.7307 19.3028C72.6658 19.2432 72.6237 19.1628 72.6116 19.0754C72.6088 19.0262 72.6185 18.977 72.6398 18.9325C72.6589 18.8919 72.6853 18.8552 72.7177 18.8242C72.8333 18.7185 72.9698 18.6381 73.1183 18.5882L73.0512 18.664C73.1207 18.2265 73.1504 17.7837 73.14 17.3409C73.1324 17.1256 73.1034 16.9116 73.0534 16.7021C73.0121 16.5055 72.9125 16.3258 72.7675 16.1867C72.7328 16.1559 72.6942 16.1297 72.6528 16.1088L72.6224 16.0936C72.6051 16.0936 72.6224 16.0936 72.6224 16.0936H72.603C72.5774 16.0843 72.5514 16.0763 72.525 16.0698C72.4379 16.0449 72.345 16.0495 72.2608 16.0828C72.0808 16.1793 71.9366 16.3311 71.8494 16.5159C71.7437 16.7103 71.656 16.914 71.5874 17.1244C71.5157 17.3377 71.455 17.5545 71.4055 17.774C71.4146 17.5462 71.4421 17.3195 71.4877 17.0962C71.5294 16.8681 71.5977 16.6457 71.6913 16.4336C71.7406 16.3237 71.8024 16.2198 71.8754 16.1239C71.9538 16.0206 72.0544 15.9363 72.1699 15.8771C72.2977 15.8179 72.4414 15.802 72.5791 15.8316C72.6077 15.838 72.6359 15.8459 72.6636 15.8554H72.6831L72.7134 15.8684L72.761 15.8879C72.821 15.9163 72.8776 15.9511 72.9299 15.9918C73.1195 16.1647 73.2518 16.3914 73.3089 16.6415C73.3669 16.8709 73.3975 17.1064 73.3998 17.3431C73.4056 17.8043 73.3554 18.2646 73.2504 18.7138L73.2353 18.7723L73.1833 18.7896C73.0576 18.8243 72.9388 18.8808 72.8325 18.9563C72.8124 18.9702 72.7954 18.9882 72.7827 19.0091C72.77 19.03 72.7619 19.0533 72.7589 19.0776C72.7642 19.133 72.787 19.1853 72.8238 19.227C72.9133 19.3317 73.0194 19.4209 73.1378 19.4912C73.259 19.5643 73.384 19.6309 73.5124 19.6904Z" fill="#D15A5A"/>
<path d="M83.3045 12.5185C83.3313 12.2277 83.4113 11.9444 83.5405 11.6826C83.671 11.406 83.8442 11.1517 84.0537 10.929C84.1794 10.7973 84.3196 10.6803 84.4717 10.5804C84.6377 10.4694 84.8195 10.384 85.0109 10.327C85.0585 10.3097 85.1105 10.301 85.1603 10.2881H85.1798H85.2166H85.2469H85.3075C85.3508 10.2881 85.4245 10.2881 85.4829 10.2751H85.6453C85.8528 10.2966 86.0542 10.3576 86.2387 10.4548C86.5301 10.6173 86.7724 10.8551 86.9403 11.1434C87.0521 11.3313 87.1305 11.5372 87.172 11.7519C87.1896 11.8323 87.1983 11.9143 87.198 11.9966L87.0031 11.8558C86.8796 11.7735 86.7151 11.6523 86.5223 11.5332C86.3288 11.4063 86.1181 11.3079 85.8965 11.2408C85.795 11.2123 85.6902 11.197 85.5847 11.1954H85.5068C85.4851 11.1954 85.4786 11.1954 85.4418 11.1954H85.3812H85.3508C85.3227 11.1954 85.2924 11.1954 85.2642 11.2149C85.1452 11.2472 85.0293 11.29 84.9178 11.3426C84.7989 11.4006 84.6832 11.4649 84.5713 11.5353C84.3557 11.6761 84.1476 11.8279 83.9476 11.9901L83.3045 12.5185Z" fill="#76413B"/>
<path d="M81.4314 12.0529L81.191 11.9121C81.0416 11.8255 80.8294 11.6956 80.5825 11.5678C80.091 11.3058 79.4392 11.0005 78.8502 11.0135C78.7041 11.0155 78.5588 11.0344 78.4171 11.0698C78.3435 11.0806 78.2742 11.1153 78.2005 11.1326C78.1269 11.1499 78.0598 11.1932 77.984 11.217C77.9082 11.2409 77.8497 11.2885 77.7804 11.321C77.7112 11.3535 77.6505 11.4011 77.5834 11.4379C77.46 11.5224 77.3344 11.6003 77.2261 11.6869C77.1178 11.7736 77.0096 11.8494 76.9186 11.923C76.8277 11.9966 76.741 12.0594 76.6761 12.1157C76.5418 12.2283 76.4595 12.2889 76.4595 12.2889C76.4773 12.1962 76.4997 12.1044 76.5267 12.0139C76.5551 11.9093 76.592 11.8072 76.6371 11.7086C76.6609 11.6501 76.6891 11.5895 76.7172 11.5245C76.7454 11.4596 76.7887 11.3968 76.8277 11.3296C76.9136 11.1816 77.0129 11.0417 77.1243 10.9117C77.1871 10.8424 77.2542 10.7753 77.3235 10.6952C77.3928 10.6151 77.4795 10.5652 77.5617 10.5003C77.7432 10.3702 77.9423 10.2667 78.1529 10.1928C78.3775 10.1156 78.6127 10.0739 78.8502 10.0694C79.0834 10.0717 79.3152 10.1067 79.5388 10.1733C79.7454 10.2355 79.9433 10.3235 80.1278 10.4353C80.6554 10.7552 81.0778 11.2227 81.3426 11.7801C81.3799 11.8683 81.4096 11.9596 81.4314 12.0529Z" fill="#76413B"/>
<path d="M78.6943 14.2746C78.6943 14.9242 78.4994 15.4678 78.2612 15.4656C78.023 15.4634 77.8498 14.9286 77.8541 14.2703C77.8584 13.612 78.049 13.0771 78.2763 13.0771C78.5037 13.0771 78.6986 13.6163 78.6943 14.2746Z" fill="#1C171E"/>
<path d="M85.208 14.3503C85.208 15 85.0131 15.5435 84.7749 15.5435C84.5367 15.5435 84.3721 15 84.3873 14.3503C84.4024 13.7007 84.58 13.1572 84.8095 13.1593C85.0391 13.1615 85.2101 13.6855 85.208 14.3503Z" fill="#1C171E"/>
<path d="M78.7766 19.593L86.217 20.6302C86.217 20.6302 83.3456 23.7138 78.7766 19.593Z" fill="white"/>
<path d="M92.5704 45.0758C92.5704 45.0758 96.3318 61.7367 101.169 60.8402C106.007 59.9437 98.3024 38.2677 98.3024 38.2677L92.5704 45.0758Z" fill="#F29083"/>
<path d="M84.8203 29.9827C84.8203 29.9827 92.4795 28.1031 96.3751 32.7978C100.271 37.4924 101.078 44.3526 101.078 44.3526L92.748 47.1676L84.8203 29.9827Z" fill="#0096C8"/>
<path d="M90.3616 41.4183L90.1624 41.5699L92.7501 47.1806L101.081 44.3655C101.081 44.3655 100.526 39.6708 98.1247 35.3854C95.5955 37.4534 92.9753 39.4218 90.3616 41.4183Z" fill="#558AB5"/>
<path d="M104.153 15.5284C104.153 15.5284 102.666 10.0195 106.763 8.1356C106.763 8.1356 108.027 13.2114 104.153 15.5284Z" fill="#965450"/>
<path d="M106.815 11.6003C107.023 10.453 107.005 9.27615 106.763 8.1356C106.017 8.46575 105.374 8.98907 104.898 9.65141C105.535 10.3097 106.169 10.9593 106.815 11.6003Z" fill="#FC6A5A"/>
<path d="M103.954 15.1321C103.222 15.8727 102.029 18.4474 100.171 24.11C97.8129 31.3058 95.2707 40.7688 95.8965 40.9658C96.5223 41.1629 100.082 32.0529 102.443 24.8549C104.192 19.5301 104.794 16.7519 104.736 15.5847C104.472 15.4331 104.212 15.288 103.954 15.1321Z" fill="#FC6A5A"/>
<path d="M103.954 15.1321C103.439 15.654 102.694 17.081 101.65 19.8636C102.343 20.1523 103.032 20.4411 103.718 20.7298C104.493 18.0078 104.777 16.3989 104.736 15.5804C104.472 15.4331 104.212 15.288 103.954 15.1321Z" fill="#FDDEC0"/>
<path d="M100.812 23.0425C100.812 23.0425 104.753 22.5033 105.647 24.4738C106.542 26.4444 107.618 59.7705 102.243 60.8402C98.0685 61.6761 93.6466 57.0788 99.7359 30.7406C99.7359 30.7406 97.0485 30.0238 98.1248 28.77C98.1248 28.77 96.6912 27.3365 98.6618 26.7995C98.6618 26.7995 97.5791 25.366 99.3786 25.1862C99.3786 25.1906 97.5964 23.3998 100.812 23.0425Z" fill="#FFAC9D"/>
<path d="M102.243 60.8402C101.902 60.9123 101.553 60.9435 101.204 60.9333H101.072L100.942 60.916L100.68 60.8835C100.508 60.8501 100.339 60.8037 100.173 60.7449C99.5076 60.5021 98.9278 60.0692 98.5059 59.4998C98.0818 58.9365 97.75 58.3094 97.5228 57.6419C97.2892 56.9798 97.1132 56.2987 96.9966 55.6064C96.9663 55.4353 96.9316 55.2621 96.9078 55.0888L96.8407 54.5691C96.7887 54.2205 96.7649 53.8718 96.7346 53.5232C96.7043 53.1746 96.6913 52.8238 96.6718 52.4751C96.6523 52.1265 96.6501 51.7757 96.6458 51.4249C96.6415 51.0741 96.6458 50.7255 96.6458 50.3768C96.6458 50.0282 96.6458 49.6752 96.6739 49.3266L96.7281 48.2785C96.7497 47.9299 96.7822 47.5812 96.806 47.2326C96.8537 46.5353 96.9381 45.8424 97.0052 45.1451C97.0724 44.4479 97.1677 43.7571 97.2629 43.0663C97.3582 42.3755 97.4513 41.6804 97.5683 40.9918C97.6852 40.3032 97.7848 39.6124 97.9147 38.9238C98.0447 38.2352 98.1594 37.5488 98.298 36.8645C98.4366 36.1802 98.5644 35.4938 98.7138 34.8117C98.8632 34.1295 98.9996 33.4431 99.1469 32.7631L99.6103 30.7211L99.6947 30.8619C99.4397 30.7884 99.19 30.6973 98.9477 30.589C98.7014 30.4833 98.4682 30.3497 98.2525 30.1906C98.1421 30.1065 98.0418 30.0099 97.9537 29.9026C97.8593 29.7885 97.794 29.6533 97.7632 29.5085C97.733 29.3597 97.7473 29.2053 97.8043 29.0646C97.8305 28.997 97.8639 28.9323 97.9039 28.8718C97.9421 28.8136 97.9841 28.7579 98.0295 28.7051V28.8545C97.9501 28.7688 97.8777 28.6768 97.813 28.5795C97.7443 28.4836 97.6848 28.3813 97.6354 28.2742C97.6086 28.2205 97.5861 28.1647 97.5683 28.1074C97.5482 28.0498 97.5338 27.9903 97.525 27.9299L97.5098 27.8389V27.7437C97.5098 27.7112 97.5098 27.6809 97.5098 27.6484L97.5315 27.5553C97.5315 27.5249 97.5466 27.4925 97.5553 27.4621L97.5986 27.3777L97.6441 27.2932C97.6614 27.2673 97.683 27.2456 97.7025 27.2218C97.7402 27.1719 97.7838 27.1268 97.8324 27.0875L97.9797 26.9814C98.0293 26.9491 98.0814 26.9208 98.1356 26.897L98.2937 26.8212L98.6228 26.7129L98.573 26.8623C98.5132 26.7783 98.4596 26.69 98.4128 26.5981C98.3666 26.5062 98.3282 26.4106 98.298 26.3123C98.2807 26.263 98.2677 26.2123 98.259 26.1607C98.2478 26.1088 98.242 26.0558 98.2417 26.0026C98.2332 25.9481 98.2332 25.8926 98.2417 25.8381L98.2547 25.7579L98.285 25.68C98.285 25.654 98.3067 25.628 98.3197 25.602L98.3673 25.5349C98.3973 25.4881 98.4354 25.447 98.4799 25.4136C98.5198 25.3774 98.5633 25.3455 98.6098 25.3184L98.7528 25.2469C98.8007 25.2278 98.8499 25.2119 98.9 25.1993C98.9476 25.1863 98.9975 25.1689 99.0473 25.1581L99.3461 25.1126L99.2963 25.2512C99.1637 25.1095 99.0495 24.9516 98.9563 24.7813C98.8575 24.609 98.7991 24.4165 98.7852 24.2183C98.7757 24.0124 98.8429 23.8103 98.9736 23.651C99.1046 23.5039 99.2656 23.3865 99.4457 23.3067C99.6189 23.227 99.7995 23.1646 99.9849 23.1204C100.169 23.0771 100.355 23.0425 100.541 23.0165C100.728 22.9905 100.912 22.971 101.1 22.9602C101.288 22.9494 101.473 22.9385 101.661 22.9342C102.41 22.9099 103.158 22.993 103.883 23.1811C104.245 23.2776 104.589 23.4319 104.903 23.638C105.058 23.7431 105.199 23.8675 105.323 24.0083C105.445 24.149 105.546 24.3065 105.624 24.476C105.542 24.3086 105.438 24.1534 105.314 24.0148C105.185 23.878 105.04 23.7579 104.881 23.6575C104.567 23.4595 104.223 23.3133 103.863 23.2244C103.14 23.0521 102.396 22.985 101.654 23.0252C101.468 23.0252 101.284 23.0447 101.1 23.062C100.916 23.0793 100.732 23.1053 100.548 23.1313C100.364 23.1573 100.186 23.1962 100.009 23.2417C99.8324 23.2882 99.6606 23.3505 99.4955 23.4279C99.3355 23.5008 99.193 23.6071 99.0776 23.7398C98.9696 23.8717 98.9154 24.0395 98.926 24.2097C98.9414 24.3846 98.9954 24.554 99.0841 24.7055C99.1723 24.8622 99.2792 25.0077 99.4024 25.1386L99.5128 25.2512L99.3548 25.2772L99.0732 25.3227C99.0278 25.3227 98.9845 25.3487 98.9412 25.3617C98.8967 25.3732 98.8532 25.3884 98.8112 25.4071L98.69 25.4678C98.6467 25.4851 98.6228 25.5219 98.586 25.5457C98.5518 25.5707 98.5231 25.6024 98.5016 25.6388L98.4648 25.6887L98.4409 25.7471L98.4193 25.8056L98.4085 25.8684C98.4009 25.9106 98.4009 25.9539 98.4085 25.9961C98.4069 26.0407 98.4121 26.0852 98.4236 26.1282C98.4308 26.1733 98.4424 26.2175 98.4583 26.2603C98.4868 26.3482 98.5222 26.4336 98.5644 26.5158C98.6071 26.5972 98.6556 26.6753 98.7095 26.7497L98.7874 26.8558L98.6575 26.8991L98.3522 27.0052C98.3023 27.0247 98.2569 27.0507 98.2092 27.0745C98.1612 27.0963 98.1149 27.1217 98.0706 27.1503L97.9472 27.2434C97.909 27.2744 97.8748 27.3101 97.8454 27.3495C97.8284 27.3681 97.8125 27.3876 97.7978 27.408L97.7675 27.4708L97.7328 27.5358L97.7177 27.6051L97.7004 27.6744C97.7004 27.7003 97.7004 27.7242 97.7004 27.748V27.8216L97.7155 27.8952C97.7224 27.9448 97.7348 27.9935 97.7523 28.0403C97.7684 28.0903 97.7887 28.1388 97.813 28.1854C97.8576 28.2805 97.9113 28.3712 97.9732 28.4561C98.0333 28.5432 98.1006 28.6251 98.1746 28.7008L98.2396 28.7657L98.1811 28.8502C98.1431 28.8961 98.1084 28.9446 98.0771 28.9953C98.0454 29.043 98.0185 29.0938 97.997 29.1469C97.9578 29.2482 97.948 29.3585 97.9689 29.4652C97.9947 29.574 98.0451 29.6755 98.1161 29.7618C98.1924 29.8543 98.2797 29.9372 98.376 30.0087C98.5777 30.156 98.7956 30.2795 99.0256 30.3768C99.2569 30.479 99.4949 30.5651 99.738 30.6345L99.8485 30.6648L99.8247 30.7753L99.3699 32.8173C99.2162 33.4994 99.0819 34.1837 98.9368 34.8658C98.7917 35.5479 98.664 36.2322 98.5297 36.9165C98.3955 37.6007 98.2764 38.2872 98.1508 38.9736C98.0252 39.6601 97.9147 40.3465 97.8 41.0351C97.6852 41.7237 97.5834 42.4123 97.486 43.101C97.3885 43.7896 97.3062 44.4847 97.2196 45.1754C97.133 45.8662 97.0637 46.5592 97.0161 47.2543C96.9879 47.6029 96.9554 47.9494 96.9338 48.2958L96.8753 49.3396C96.8537 49.6861 96.8515 50.0347 96.8385 50.3833C96.8255 50.732 96.8212 51.0784 96.8234 51.4271C96.8255 51.7757 96.8234 52.1222 96.8363 52.4708C96.8493 52.8194 96.8558 53.1659 96.8862 53.5124C96.9165 53.8589 96.9316 54.2053 96.9793 54.5496L97.0399 55.0672C97.0637 55.2404 97.094 55.4115 97.1222 55.5825C97.2316 56.2678 97.3975 56.9428 97.6181 57.6007C97.8275 58.2626 98.1411 58.8868 98.547 59.45C98.95 60.0178 99.511 60.4546 100.16 60.706C100.323 60.7668 100.489 60.8168 100.658 60.8554L100.916 60.8922L101.046 60.9117H101.176C101.533 60.9313 101.892 60.9073 102.243 60.8402Z" fill="#D15A5A"/>
<path d="M72.5964 30.117C72.5964 30.117 74.2097 35.6259 79.4479 35.4916C84.6861 35.3574 84.8203 29.9827 84.8203 29.9827C84.8203 29.9827 92.6159 28.6402 94.0906 32.2673C95.5652 35.8944 94.764 73.9173 94.764 73.9173L65.8792 73.2504C65.8792 73.2504 61.8472 33.2114 63.8632 31.7346C65.8792 30.2578 72.5964 30.117 72.5964 30.117Z" fill="#0096C8"/>
<path d="M82.3929 48.6683C78.363 46.0697 74.9438 42.6722 71.5224 39.3396C69.0148 36.8969 66.4487 34.3222 64.4847 31.3772C64.2662 31.4737 64.058 31.5919 63.8632 31.7302C61.8472 33.207 63.1356 73.246 63.1356 73.246L94.7662 73.9173C94.7662 73.9173 94.9719 64.2096 94.9828 54.136C90.5696 52.8952 86.2582 51.1629 82.3929 48.6683Z" fill="#0096C8"/>
<path d="M63.8632 31.7302C63.7157 31.8905 63.6134 32.087 63.5665 32.2998C63.506 32.5078 63.4562 32.7189 63.4171 32.9321C63.337 33.3651 63.2807 33.7874 63.2309 34.2183C63.1356 35.0845 63.075 35.9507 63.0252 36.8169C62.9277 38.5492 62.8823 40.2816 62.8498 42.0139C62.7892 45.4786 62.7827 48.9541 62.8086 52.4253C62.8649 59.3648 63.0093 66.3036 63.2417 73.2417L63.1421 73.1442L71.0503 73.3088L78.9563 73.4886L94.764 73.8502L94.6947 73.9173L94.8182 56.4834L94.9654 39.0494L94.9113 56.4834L94.8312 73.9173V73.9866H94.7619L78.9542 73.6748L71.0481 73.521L63.14 73.3478H63.0425V73.2504C62.8433 66.3094 62.722 59.3677 62.6787 52.4253C62.6787 50.693 62.6787 48.9606 62.6787 47.2283C62.6917 45.4959 62.709 43.7636 62.7567 42.0204C62.8043 40.2772 62.8693 38.5557 62.9732 36.8234C63.0317 35.9572 63.101 35.091 63.2028 34.2248C63.2569 33.7917 63.3175 33.3586 63.402 32.9386C63.4421 32.7251 63.4942 32.514 63.5579 32.3062C63.6066 32.0905 63.712 31.8917 63.8632 31.7302Z" fill="#1B4268"/>
<path d="M61.9814 33.0729C61.9814 33.0729 52.1741 55.2426 55.3985 59.2747C58.6228 63.3067 83.2114 53.4973 83.2114 53.4973L77.5682 49.3331L65.3422 50.9464L71.2538 35.2275L61.9814 33.0729Z" fill="#FFAC9D"/>
<path d="M71.9338 57.4644C77.9256 55.6042 83.2114 53.4951 83.2114 53.4951L77.5683 49.331L66.5094 50.7883C67.5943 53.4626 69.6038 55.6086 71.9338 57.4644Z" fill="#F29083"/>
<path d="M66.4141 48.0837L71.2517 35.2231L61.9793 33.0729C61.9793 33.0729 59.5843 38.4865 57.551 44.4522C60.1841 46.3362 63.2309 47.4535 66.4141 48.0837Z" fill="#F29083"/>
<path d="M58.2634 53.4496C58.2634 53.4496 58.3262 53.402 58.4539 53.324C58.5817 53.2461 58.7636 53.127 59.0083 52.9949C59.253 52.8628 59.554 52.7112 59.9004 52.5401C60.2469 52.3691 60.654 52.2045 61.0958 52.0226L61.7952 51.7714C62.0377 51.6848 62.2868 51.5895 62.5509 51.518C63.0771 51.3708 63.6228 51.1781 64.2097 51.0676L65.0975 50.8727L65.327 50.8229L65.5436 50.7861L66.0026 50.7125L67.8714 50.4115C68.4994 50.3206 69.1209 50.2101 69.7445 50.1451L71.5657 49.9286C72.1547 49.8571 72.7285 49.7965 73.2699 49.7359L74.7987 49.5908C76.6913 49.4132 77.958 49.3374 77.958 49.3374L74.8138 49.7424L73.298 49.9308C72.7588 50.0066 72.1915 50.0867 71.6025 50.1603L69.7878 50.3942C69.1707 50.4656 68.547 50.5847 67.9191 50.6779L66.0503 50.9615L65.589 51.0308L65.3595 51.0655L65.143 51.1109L64.2616 51.2972C63.6791 51.4054 63.1334 51.5743 62.6072 51.7086C62.3431 51.7714 62.094 51.858 61.8493 51.936L61.1477 52.1655C60.9312 52.2456 60.7146 52.3322 60.5133 52.408C60.3119 52.4838 60.117 52.551 59.9416 52.6246C59.5886 52.7805 59.279 52.9083 59.0321 53.0382C58.7852 53.1681 58.599 53.2547 58.4604 53.3305C58.3218 53.4063 58.2634 53.4496 58.2634 53.4496Z" fill="#D15A5A"/>
<path d="M72.5964 30.1169C72.5964 30.1169 65.4764 24.2053 60.903 31.4617C56.3296 38.7181 56.0654 41.4032 56.0654 41.4032C56.0654 41.4032 63.4561 46.5093 69.6362 47.3149L72.5964 30.1169Z" fill="#0096C8"/>
<path d="M65.5479 27.9515L65.0282 28.0815C64.8571 28.1269 64.6926 28.2006 64.5258 28.259C64.3585 28.3178 64.1963 28.3903 64.0408 28.4756C63.8785 28.5489 63.7228 28.6358 63.5752 28.7354C63.428 28.8329 63.2764 28.9238 63.1313 29.0278L62.7199 29.3656C62.5829 29.4783 62.4534 29.5998 62.3322 29.7294C62.211 29.8571 62.0767 29.9741 61.9663 30.1126L61.6285 30.5241C61.5743 30.5934 61.5159 30.6605 61.4639 30.7406L61.3145 30.9572C61.1153 31.2517 60.9117 31.5397 60.7363 31.8493L59.6406 33.6856C59.4522 33.9888 59.2855 34.3028 59.1166 34.6146L58.6185 35.5501C58.4474 35.8619 58.2742 36.1715 58.1226 36.4942L57.6506 37.4513C57.4881 37.7675 57.3474 38.101 57.2066 38.4193C57.0659 38.7376 56.9121 39.0689 56.793 39.4002C56.6739 39.7315 56.5354 40.0499 56.4379 40.4007L56.2842 40.9074C56.2495 41.0763 56.1976 41.2517 56.1781 41.4141L56.1348 41.3188C56.6458 41.6631 57.1698 41.9966 57.7004 42.3171C58.2309 42.6375 58.7658 42.9537 59.3071 43.2569C59.5756 43.4106 59.8485 43.5579 60.1213 43.7051C60.3942 43.8524 60.6649 44.0018 60.942 44.1382C61.2192 44.2746 61.492 44.4262 61.7714 44.5583L62.6094 44.9611L63.4583 45.34C63.7398 45.4699 64.0278 45.5847 64.3244 45.6995C64.6211 45.8142 64.8961 45.9398 65.1906 46.0373L66.0568 46.3513C66.3491 46.4466 66.648 46.5332 66.9425 46.6241C67.237 46.7151 67.5379 46.793 67.8389 46.8645C68.1399 46.9359 68.4366 47.0269 68.7419 47.0702L69.6558 47.2304L69.5626 47.2997L70.4483 42.3192L71.3556 37.3539L70.5522 42.3344L69.7272 47.3149L69.7121 47.395L69.6341 47.382L68.7095 47.2304C68.3998 47.1893 68.0988 47.0984 67.7935 47.0334C67.4881 46.9684 67.1872 46.8905 66.8905 46.793C66.5938 46.6956 66.2907 46.6176 65.994 46.5224L65.1148 46.2257C64.8182 46.1282 64.5345 46.0091 64.2486 45.8879C63.9628 45.7666 63.6705 45.6605 63.3825 45.5306L62.5163 45.1516L61.6718 44.751C61.3903 44.6189 61.1153 44.4717 60.8381 44.3331C60.5609 44.1945 60.2837 44.0472 60.0109 43.9C59.738 43.7527 59.4609 43.6077 59.1923 43.4496C58.6481 43.1435 58.1118 42.8274 57.5834 42.5011C57.0507 42.1763 56.5267 41.8515 56.0092 41.4899L55.9594 41.4552V41.3946C55.9832 41.204 56.0373 41.0373 56.0741 40.8576L56.2365 40.3357C56.3383 39.9892 56.4812 39.6622 56.6003 39.3244C56.7194 38.9866 56.8818 38.6748 57.0204 38.337C57.159 37.9992 57.3063 37.6874 57.4708 37.3647L57.9516 36.4054C58.1053 36.0849 58.2829 35.7753 58.4583 35.4634L58.9823 34.528C59.1577 34.2183 59.3266 33.9043 59.5193 33.6033L60.6367 31.78C60.8143 31.4725 61.0243 31.178 61.23 30.8879L61.3838 30.6713C61.4401 30.602 61.4985 30.5349 61.557 30.4548L61.9035 30.0455C62.0204 29.9091 62.159 29.7922 62.2846 29.6666C62.4083 29.5378 62.5407 29.4177 62.6809 29.3071L63.114 28.9758C63.259 28.874 63.415 28.7852 63.5665 28.6878C63.8741 28.507 64.1964 28.3526 64.5302 28.2265C64.7012 28.1724 64.8658 28.101 65.039 28.0598L65.5479 27.9515Z" fill="#1B4268"/>
<path d="M89.5258 48.2569C83.3457 40.732 81.5982 40.8662 79.3136 42.4795C77.0291 44.0927 75.8208 43.4193 75.8208 43.4193C71.5224 40.8662 68.3846 37.7242 65.745 42.3366C63.0577 47.0486 78.1075 63.9758 85.3595 63.036C92.6116 62.0962 95.706 55.7796 89.5258 48.2569ZM85.1062 47.7762C84.7251 48.5535 83.0425 48.5102 81.3491 47.6787C79.6558 46.8472 78.5904 45.5436 78.9672 44.7662C79.3439 43.9888 81.033 44.0343 82.7264 44.8636C84.4197 45.693 85.4873 46.9988 85.1062 47.7762Z" fill="white"/>
<path d="M78.6423 45.1647C78.6423 45.1647 79.8506 43.0166 81.4574 42.8823C83.0642 42.748 89.6536 46.1066 82.9364 45.1647C82.9429 45.1647 81.7324 50.0477 78.6423 45.1647Z" fill="#FFAC9D"/>
<path d="M71.4314 50.4504C72.5197 50.4504 73.402 49.5682 73.402 48.4799C73.402 47.3916 72.5197 46.5093 71.4314 46.5093C70.3431 46.5093 69.4609 47.3916 69.4609 48.4799C69.4609 49.5682 70.3431 50.4504 71.4314 50.4504Z" fill="#965450"/>
<path d="M75.7298 55.4657C76.8181 55.4657 77.7003 54.5834 77.7003 53.4951C77.7003 52.4068 76.8181 51.5246 75.7298 51.5246C74.6415 51.5246 73.7592 52.4068 73.7592 53.4951C73.7592 54.5834 74.6415 55.4657 75.7298 55.4657Z" fill="#6F96BD"/>
<path d="M83.0359 59.1879C83.8054 58.4183 83.8054 57.1706 83.0359 56.4011C82.2663 55.6315 81.0186 55.6315 80.2491 56.4011C79.4796 57.1706 79.4796 58.4183 80.2491 59.1879C81.0187 59.9574 82.2663 59.9574 83.0359 59.1879Z" fill="#5D8584"/>
<path d="M87.5531 59.9437C88.6414 59.9437 89.5236 59.0615 89.5236 57.9732C89.5236 56.8849 88.6414 56.0026 87.5531 56.0026C86.4648 56.0026 85.5825 56.8849 85.5825 57.9732C85.5825 59.0615 86.4648 59.9437 87.5531 59.9437Z" fill="#FFA65B"/>
<path d="M88.2699 53.8524C89.3582 53.8524 90.2404 52.9702 90.2404 51.8819C90.2404 50.7936 89.3582 49.9113 88.2699 49.9113C87.1816 49.9113 86.2993 50.7936 86.2993 51.8819C86.2993 52.9702 87.1816 53.8524 88.2699 53.8524Z" fill="#FC6A5A"/>
<path d="M28.4539 62.2824C28.4539 62.2824 18.8524 72.3971 19.1837 96.637H53.4604C53.4604 96.637 54.1404 68.8307 41.4682 63.2178C28.7961 57.605 28.4539 62.2824 28.4539 62.2824Z" fill="#0096C8"/>
<path d="M34.1491 86.6393C31.5332 85.9723 28.6662 84.9372 26.1846 83.9801C24.2357 83.2309 22.0443 82.4123 20.4548 81.1802C19.7619 83.4972 19.1556 92.6375 19.1794 96.6371H34.1491V86.6393Z" fill="#0096C8"/>
<path d="M44.1815 64.7533C43.3294 64.154 42.4206 63.6398 41.4682 63.218C28.7939 57.603 28.4539 62.2825 28.4539 62.2825C27.6737 63.1208 26.9761 64.0324 26.3707 65.0045C32.2906 65.7462 38.2849 65.6616 44.1815 64.7533Z" fill="#0096C8"/>
<path d="M53.4604 96.637C53.4604 96.637 54.1404 68.8307 41.4682 63.2178C28.796 57.605 28.4539 62.2824 28.4539 62.2824C28.4539 62.2824 19.0689 71.3144 19.1837 96.637" stroke="#1B4268" stroke-width="0.5" stroke-miterlimit="10"/>
<path d="M22.3301 82.317C22.5683 82.4252 22.8086 82.5335 23.049 82.6353C23.2894 82.7371 23.5254 82.8518 23.7679 82.9493L24.4912 83.2546C24.7316 83.3607 24.9762 83.4516 25.2188 83.5513L25.9464 83.8458C26.1867 83.9454 26.4314 84.0385 26.6783 84.1294L28.1486 84.6773L29.6341 85.1775C29.881 85.262 30.1278 85.3507 30.379 85.4179L31.1326 85.6344L31.8862 85.851C32.1352 85.9289 32.3907 85.9787 32.6462 86.035L34.1729 86.3685H34.1296L37.2781 85.7189C38.3283 85.5023 39.3764 85.2858 40.4288 85.0887L43.5817 84.4737L46.7411 83.8847L43.6055 84.5885L40.4656 85.2663C39.4197 85.4958 38.3695 85.6994 37.3214 85.9289L34.1772 86.5785H34.1512H34.1317L32.5921 86.2299C32.3366 86.1714 32.0789 86.1195 31.8299 86.0393L31.0741 85.8228L30.3184 85.6063C30.065 85.537 29.8182 85.446 29.5713 85.3594L28.0858 84.844L26.6241 84.2659C26.3802 84.1706 26.1376 84.071 25.8966 83.967L25.1755 83.6552C24.9351 83.5491 24.6926 83.4495 24.4565 83.3347L23.7419 83.0056C23.2677 82.7782 22.7978 82.5617 22.3301 82.317Z" fill="#1B4268"/>
<path d="M34.0711 96.637L34.0364 91.5612V86.4876H34.2681C34.2681 86.4876 34.2681 89.0233 34.2681 91.5612C34.2681 94.0991 34.2313 96.637 34.2313 96.637H34.0711Z" fill="#1B4268"/>
<path d="M40.5587 36.0589C40.5587 36.0589 39.6124 43.8697 40.8121 43.6661C42.0117 43.4626 47.0485 40.6063 48.1096 45.7319C49.1707 50.8575 41.9164 61.1066 41.9164 61.1066L25.7189 60.9138C25.7189 60.9138 23.0013 45.3941 27.304 43.8567C31.6068 42.3192 34.3092 46.5808 34.1577 39.935C34.0039 33.1897 40.5587 36.0589 40.5587 36.0589Z" fill="#965450"/>
<path d="M33.9649 42.6613C34.0938 41.7569 34.1582 40.8443 34.1576 39.9307C34.2984 33.1832 40.5587 36.0589 40.5587 36.0589C40.5587 36.0589 40.3205 38.036 40.2338 39.9762C38.6466 41.126 35.7882 42.159 33.9649 42.6613Z" fill="#76413B"/>
<path d="M32.6333 21.5397C32.6333 21.5397 29.0603 18.8199 25.234 24.8572C21.4076 30.8944 25.7428 37.2002 30.6757 37.276C35.6086 37.3518 32.6333 21.5397 32.6333 21.5397Z" fill="#EFC8A8"/>
<path d="M32.6333 21.5397C32.6333 21.5397 29.0603 18.8199 25.234 24.8572C21.4076 30.8944 25.7428 37.2002 30.6757 37.276C35.6086 37.3518 32.6333 21.5397 32.6333 21.5397Z" stroke="#C98D61" stroke-width="1.06" stroke-miterlimit="10"/>
<path d="M35.2426 22.6202C35.2426 22.6202 28.729 22.0204 27.9711 29.253C27.0074 38.4583 32.5553 44.0104 37.8823 39.9286C43.2093 35.8467 43.926 22.4037 35.2426 22.6202Z" fill="#965450"/>
<path d="M40.6951 33.8112C40.6951 33.8112 41.0979 29.7878 42.8605 30.576C44.6232 31.3642 43.5102 36.7388 40.5154 35.2057" fill="#965450"/>
<path d="M35.2426 22.6202C35.2426 22.6202 35.1019 22.6094 34.8398 22.6202C34.4602 22.6305 34.0818 22.6674 33.7073 22.7306C33.1286 22.83 32.5638 22.9979 32.0248 23.2308C31.2642 23.5534 30.5768 24.0264 30.0037 24.6215C29.4306 25.2165 28.9838 25.9213 28.69 26.6934C28.3343 27.6291 28.1226 28.6132 28.062 29.6124C27.9678 30.6822 27.9678 31.7583 28.062 32.8281C28.1532 33.9331 28.3749 35.0234 28.7225 36.0762C29.0567 37.1269 29.5695 38.1122 30.2383 38.9888C30.5686 39.4118 30.9481 39.7942 31.3686 40.1278C31.7818 40.4458 32.2392 40.7019 32.7264 40.8878C33.1984 41.0647 33.6971 41.1599 34.201 41.1694C34.6855 41.1852 35.1694 41.1238 35.6346 40.9875C36.4936 40.735 37.2928 40.3115 37.9841 39.7423C38.5754 39.2648 39.0966 38.7064 39.5323 38.0836C39.7489 37.8151 39.8961 37.5336 40.0564 37.2867C40.2166 37.0399 40.3271 36.7908 40.4462 36.5765C40.6627 36.1434 40.8143 35.7817 40.9031 35.5349L41.0525 35.1603L40.9161 35.5392C40.8338 35.7904 40.6844 36.1455 40.483 36.5959C40.3725 36.8125 40.2556 37.0615 40.1148 37.3235C39.9741 37.5856 39.816 37.8627 39.6125 38.1421C39.5129 38.2807 39.4219 38.4344 39.305 38.5752L38.952 39.0082C38.6849 39.3124 38.3953 39.5962 38.0858 39.8571C37.3845 40.4541 36.5699 40.9034 35.6909 41.178C35.2074 41.3288 34.7031 41.4019 34.1967 41.3946C33.6664 41.3929 33.1407 41.2968 32.6441 41.1109C32.1316 40.9198 31.65 40.6542 31.2149 40.3227C30.7757 39.9788 30.3789 39.5841 30.0326 39.1468C29.3387 38.2499 28.8053 37.2396 28.4561 36.1607C28.1112 35.0876 27.8932 33.9779 27.8065 32.8541C27.7186 31.7692 27.7251 30.6788 27.826 29.5951C27.8931 28.5733 28.1234 27.5688 28.5081 26.6198C28.851 25.7672 29.3714 24.9973 30.0347 24.3612C30.6003 23.8311 31.2617 23.4137 31.9836 23.1312C32.5351 22.9124 33.1109 22.7604 33.6987 22.6787C34.0752 22.6253 34.4552 22.5992 34.8355 22.6007C35.1019 22.605 35.2426 22.6202 35.2426 22.6202Z" fill="#54201C"/>
<path d="M41.4682 21.1996C41.4682 21.1996 36.1932 16.4357 41.7237 14.1403C47.2543 11.8449 47.2521 19.7553 43.5947 20.9463C43.5947 20.9463 45.379 21.2862 46.9966 18.1312C46.9966 18.1377 46.4011 23.9216 41.4682 21.1996Z" fill="#EFC8A8"/>
<path d="M41.4682 21.1997C41.1581 20.9077 40.8687 20.5944 40.6021 20.2621C40.3297 19.9312 40.0829 19.5801 39.8636 19.2119C39.6427 18.8437 39.4668 18.4504 39.3396 18.0404C39.2079 17.6297 39.1615 17.1964 39.2032 16.7671C39.2535 16.3344 39.413 15.9216 39.6666 15.5674C39.9222 15.2167 40.24 14.9158 40.6042 14.6796C40.964 14.439 41.3461 14.2338 41.7454 14.0668C41.9468 13.9953 42.1373 13.9044 42.3496 13.8502L42.6657 13.7593C42.7718 13.7355 42.8823 13.7181 42.9862 13.6987C43.4168 13.6204 43.8587 13.63 44.2855 13.7268C44.7214 13.8355 45.1159 14.0697 45.4202 14.4003C45.7199 14.7302 45.9418 15.1231 46.0698 15.5501C46.1948 15.9717 46.2562 16.4096 46.2517 16.8494C46.2508 17.7284 46.0225 18.5922 45.5891 19.357C45.3719 19.7399 45.094 20.0851 44.7662 20.379C44.4356 20.671 44.0487 20.8921 43.6293 21.0287L43.6163 20.8381C43.7042 20.8458 43.7926 20.8458 43.8805 20.8381C43.9722 20.829 44.0633 20.8145 44.1534 20.7948C44.2443 20.7796 44.3331 20.7428 44.4219 20.719C44.5107 20.6952 44.5973 20.6519 44.6817 20.6107C44.7662 20.5696 44.8506 20.5263 44.9308 20.4765L45.169 20.3227L45.3855 20.1473C45.4635 20.091 45.5263 20.0196 45.602 19.9568C45.6736 19.8928 45.7416 19.8248 45.8056 19.7532L45.9962 19.5367C46.0611 19.4652 46.1153 19.3851 46.1759 19.3201C46.2365 19.2552 46.295 19.1686 46.3491 19.0906L46.5094 18.8481C46.5592 18.768 46.6176 18.69 46.6653 18.6055L46.949 18.1032L47.0875 17.8585L47.0529 18.1335C47.0049 18.4632 46.9325 18.7889 46.8363 19.1079C46.7439 19.4266 46.6258 19.7372 46.4834 20.0369C46.4098 20.1863 46.3318 20.3314 46.2452 20.47C46.1569 20.6104 46.0615 20.7463 45.9593 20.8771C45.8538 21.0054 45.7395 21.1262 45.6172 21.2387C45.4945 21.3499 45.3626 21.4506 45.2231 21.5397C45.0822 21.6269 44.9327 21.6995 44.777 21.7563C44.7006 21.788 44.6216 21.8134 44.541 21.8321C44.4619 21.8561 44.3807 21.8728 44.2985 21.8819C44.1344 21.9078 43.9686 21.9209 43.8026 21.9208C43.6379 21.9147 43.4738 21.8988 43.311 21.8732C43.148 21.8471 42.9867 21.811 42.8281 21.7649C42.6679 21.7238 42.5141 21.6588 42.3582 21.6068L41.9056 21.4098L41.4682 21.1997ZM41.4682 21.1997L41.9013 21.4163L42.3561 21.609C42.5141 21.6588 42.6657 21.7216 42.826 21.7606C42.9844 21.806 43.1457 21.8407 43.3089 21.8645C43.4715 21.8905 43.6357 21.9057 43.8004 21.91C43.9644 21.9085 44.1281 21.894 44.2898 21.8667C44.3714 21.8569 44.4518 21.8395 44.5302 21.8147C44.6094 21.796 44.6869 21.7707 44.7619 21.7389C44.9134 21.6821 45.0585 21.6095 45.1949 21.5224C45.3329 21.4346 45.4626 21.3346 45.5826 21.2236C45.7007 21.1094 45.8107 20.9871 45.9117 20.8576C46.011 20.7272 46.1028 20.5913 46.1867 20.4505C46.2668 20.3097 46.3426 20.1647 46.4033 20.0174C46.5367 19.7182 46.6467 19.409 46.7324 19.0928C46.8187 18.7773 46.8816 18.456 46.9208 18.1313L47.0226 18.1616L46.7671 18.6813C46.7194 18.7658 46.6631 18.8459 46.6133 18.9304L46.4552 19.1772C46.4011 19.2595 46.3405 19.3353 46.2842 19.4154C46.2279 19.4955 46.1694 19.5757 46.1066 19.6493L45.9139 19.8658C45.8464 19.9425 45.774 20.0149 45.6973 20.0824C45.6259 20.1495 45.5609 20.2231 45.4808 20.2838L45.2512 20.4722L45.0044 20.6389C44.9199 20.693 44.8312 20.7363 44.7445 20.7861C44.6579 20.836 44.5605 20.8684 44.4695 20.9074C44.3786 20.9464 44.279 20.9767 44.1794 20.9962C44.0802 21.0195 43.9797 21.0361 43.8784 21.046C43.7733 21.0578 43.6673 21.0578 43.5622 21.046L43.1594 20.9854L43.5492 20.8533C43.9422 20.7188 44.3033 20.5051 44.6103 20.2253C44.9179 19.944 45.1782 19.615 45.3812 19.2508C45.5865 18.8865 45.7417 18.4961 45.8424 18.0902C45.949 17.6849 46.0064 17.2683 46.0135 16.8494C46.0217 16.4321 45.967 16.016 45.8511 15.6151C45.7371 15.2151 45.536 14.8453 45.2621 14.5324C44.9824 14.2285 44.623 14.0094 44.2248 13.9C43.8201 13.8011 43.3997 13.7842 42.9884 13.8502C42.5697 13.9145 42.1598 14.0271 41.7671 14.1859C41.3729 14.3411 40.995 14.5348 40.6389 14.7641C40.2782 14.9854 39.9623 15.2726 39.7077 15.6107C39.4521 15.9498 39.2874 16.3486 39.2292 16.7693C39.1797 17.193 39.2203 17.6225 39.3483 18.0295C39.4712 18.4387 39.6435 18.8314 39.8615 19.1989C40.076 19.5684 40.3185 19.921 40.5869 20.2534C40.8587 20.5886 41.1532 20.9048 41.4682 21.1997Z" fill="#C98D61"/>
<path d="M41.8863 21.5758C42.8002 21.204 43.2396 20.1617 42.8678 19.2478C42.496 18.3339 41.4537 17.8945 40.5398 18.2663C39.6259 18.6382 39.1864 19.6805 39.5583 20.5944C39.9301 21.5083 40.9724 21.9477 41.8863 21.5758Z" fill="#6F96BD"/>
<path d="M31.6869 21.1152C31.6869 21.1152 31.6003 30.5566 40.9572 32.8519C40.9572 32.8519 40.8294 30.2361 42.6592 30.7276C44.489 31.2192 43.3391 33.7896 43.3391 33.7896C43.3391 33.7896 48.4409 28.5925 43.508 21.9663C39.3028 16.3101 31.6869 21.1152 31.6869 21.1152Z" fill="#FDDEC0"/>
<path d="M43.3392 33.7896C43.6988 33.385 44.0179 32.9463 44.292 32.4795C44.5698 32.0174 44.8067 31.532 45.0001 31.0287C45.3941 30.0244 45.5947 28.9546 45.5913 27.8758C45.5908 27.3389 45.5356 26.8034 45.4267 26.2777C45.4046 26.1455 45.3749 26.0146 45.3379 25.8858C45.3032 25.7558 45.2751 25.6259 45.234 25.496C45.1495 25.2426 45.0759 24.9849 44.9698 24.7381C44.7711 24.2396 44.5366 23.7562 44.2682 23.2916C44.1296 23.062 43.9845 22.8346 43.8351 22.6094C43.6857 22.3842 43.5276 22.1634 43.3673 21.9598C43.2049 21.7454 43.0299 21.5408 42.8433 21.347C42.7502 21.2539 42.6636 21.1521 42.5661 21.0633L42.2651 20.7991C41.8575 20.4539 41.4069 20.1628 40.9247 19.933C40.441 19.7095 39.932 19.5452 39.4089 19.4436C38.8876 19.3549 38.3589 19.3172 37.8303 19.331C37.2959 19.3426 36.7634 19.3998 36.2387 19.502C35.7113 19.6009 35.1906 19.7326 34.6796 19.8961C34.1687 20.0619 33.667 20.2549 33.1768 20.4743C32.6865 20.6895 32.2099 20.9346 31.7498 21.2084L31.7996 21.1218C31.8033 21.4532 31.8243 21.7843 31.8624 22.1136C31.8992 22.4449 31.949 22.7762 32.0096 23.1032C32.0702 23.4301 32.1417 23.7528 32.2262 24.0819C32.3106 24.4111 32.4037 24.7316 32.5077 25.0412C32.6116 25.3509 32.7242 25.6714 32.8585 25.981C32.9927 26.2907 33.1248 26.5917 33.2916 26.8883C33.363 27.0378 33.4453 27.185 33.5276 27.3214C33.6099 27.4579 33.6922 27.6138 33.7831 27.7545C33.9563 28.0404 34.1534 28.311 34.3461 28.5839C34.5388 28.8567 34.7597 29.1101 34.9958 29.3526L35.1625 29.541L35.3401 29.7164C35.4613 29.8333 35.5739 29.9568 35.6995 30.0672L36.0763 30.3964C36.2041 30.5068 36.3405 30.6129 36.4704 30.7082C36.5998 30.8145 36.735 30.9136 36.8754 31.0048L37.289 31.2885C37.5813 31.4531 37.8606 31.6415 38.1551 31.7844L38.6034 32.0118L39.0668 32.211C39.3721 32.3518 39.6926 32.4492 40.0087 32.5661C40.3249 32.6831 40.6584 32.7567 40.9745 32.852C40.6519 32.7632 40.3249 32.6874 40.0023 32.5856C39.6796 32.4838 39.3526 32.3864 39.0495 32.25L38.5817 32.0594L38.1248 31.8429C37.8173 31.7043 37.5315 31.5224 37.2348 31.3621L36.8017 31.0871C36.6588 30.9962 36.5224 30.8987 36.3881 30.7948C36.2539 30.6909 36.1131 30.5977 35.9854 30.4873L35.5913 30.1582C35.4613 30.0477 35.3466 29.9243 35.2231 29.8095L35.0412 29.632L34.8702 29.4457C34.6363 29.201 34.4262 28.9347 34.2205 28.6727C34.0148 28.4107 33.8199 28.1291 33.6402 27.8411C33.5449 27.7004 33.4605 27.5531 33.376 27.4081C33.2916 27.263 33.2049 27.1136 33.1291 26.9641C32.9689 26.6653 32.826 26.3578 32.6961 26.0482C32.5661 25.7385 32.4405 25.4202 32.3301 25.0997C32.2197 24.7792 32.1244 24.4501 32.0399 24.1274C31.9555 23.8048 31.8775 23.4778 31.8234 23.1378C31.7692 22.7978 31.7086 22.4687 31.6696 22.133C31.6307 21.7974 31.6047 21.4596 31.6003 21.1153V21.0633L31.6501 21.033C32.1177 20.7513 32.6022 20.4989 33.101 20.2773C33.5949 20.0522 34.1009 19.8548 34.6168 19.6861C35.1349 19.5157 35.6637 19.3797 36.1997 19.279C36.7376 19.1776 37.2831 19.1226 37.8303 19.1144C38.3791 19.1049 38.9275 19.1499 39.4674 19.2487C40.0076 19.355 40.5327 19.5274 41.0308 19.7619C41.5288 19.9972 41.994 20.2963 42.4146 20.6519L42.722 20.9247C42.8238 21.0178 42.9148 21.1218 43.01 21.2214C43.1979 21.4183 43.3743 21.6258 43.5384 21.8429C43.7095 22.0594 43.8546 22.289 44.0148 22.512C44.1751 22.735 44.3028 22.9732 44.4479 23.2093C44.7177 23.6838 44.9508 24.1782 45.1452 24.6883C45.2491 24.9395 45.3227 25.2036 45.405 25.4635C45.444 25.5934 45.4722 25.7277 45.5068 25.8598C45.5414 25.9919 45.5696 26.1261 45.5913 26.2604C45.6954 26.7961 45.7447 27.3409 45.7385 27.8866C45.7372 28.4318 45.6791 28.9754 45.5653 29.5085C45.4524 30.0403 45.2915 30.5607 45.0845 31.0633C44.8789 31.5663 44.6297 32.0503 44.3396 32.5098C44.0486 32.9679 43.7135 33.3966 43.3392 33.7896Z" fill="#C98D61"/>
<path d="M28.822 31.8579C28.822 31.8579 28.835 31.938 28.8589 32.0744C28.892 32.2609 28.9361 32.4453 28.9909 32.6266C29.0588 32.877 29.1639 33.1157 29.3028 33.3347C29.3432 33.3896 29.3874 33.4417 29.4349 33.4906C29.4834 33.5353 29.5372 33.5738 29.5951 33.6054C29.7132 33.6684 29.8478 33.6933 29.9806 33.6769H29.9935H30.0239L30.0823 33.666C30.1191 33.666 30.1603 33.6487 30.1949 33.6379C30.3219 33.5898 30.4376 33.5161 30.5349 33.4213C30.5862 33.3751 30.6333 33.3244 30.6757 33.2698C30.8301 33.0615 30.95 32.8297 31.0308 32.5833C31.094 32.405 31.1453 32.2227 31.1845 32.0376C31.2149 31.9012 31.2279 31.8211 31.2279 31.8211C31.2446 32.0882 31.2242 32.3564 31.1672 32.618C31.1415 32.747 31.1053 32.8738 31.0589 32.9969C31.0042 33.1385 30.9314 33.2724 30.8424 33.3954C30.7992 33.4643 30.7476 33.5276 30.6887 33.5838C30.63 33.6459 30.5638 33.7005 30.4916 33.7462C30.4133 33.7943 30.3307 33.8349 30.2447 33.8674L30.13 33.8956L30.0715 33.9086H30.0434H29.9979C29.816 33.9259 29.6332 33.8873 29.4738 33.7981C29.3262 33.7105 29.2033 33.5868 29.1165 33.4387C28.9762 33.1928 28.8843 32.9223 28.8459 32.6418C28.8171 32.4504 28.8034 32.2571 28.8047 32.0636C28.8134 31.938 28.822 31.8579 28.822 31.8579Z" fill="#1C171E"/>
<path d="M35.1127 31.964C35.1127 31.964 35.1235 32.042 35.1495 32.1806C35.1826 32.3671 35.2267 32.5515 35.2816 32.7328C35.3484 32.9834 35.4536 33.2223 35.5934 33.4409C35.6339 33.4958 35.678 33.5478 35.7255 33.5968C35.774 33.6414 35.8278 33.68 35.8857 33.7116C36.0026 33.7756 36.1369 33.8006 36.269 33.783H36.2842H36.3123H36.3708C36.4097 33.783 36.4509 33.7679 36.4855 33.757C36.5455 33.7312 36.604 33.7023 36.6609 33.6704C36.7187 33.6334 36.773 33.5914 36.8233 33.5448C36.8758 33.4997 36.923 33.4488 36.9641 33.3932C37.1196 33.1853 37.2402 32.9534 37.3214 32.7068C37.3846 32.5285 37.4359 32.3462 37.4751 32.1611C37.5055 32.0247 37.5185 31.9445 37.5185 31.9445C37.5352 32.2117 37.5148 32.4799 37.4578 32.7414C37.4313 32.8705 37.3944 32.9973 37.3474 33.1204C37.2931 33.2629 37.2203 33.3976 37.1308 33.521C37.0856 33.5884 37.0333 33.6508 36.9749 33.7072C36.9168 33.7699 36.8505 33.8245 36.7779 33.8696C36.7006 33.9182 36.6186 33.9588 36.5332 33.9909C36.492 34.0039 36.4552 34.0082 36.4162 34.019L36.3599 34.032H36.3296H36.2863C36.1038 34.0492 35.9203 34.0107 35.7601 33.9216C35.6135 33.8327 35.4908 33.7093 35.4028 33.5621C35.2634 33.3168 35.1723 33.047 35.1343 32.7674C35.1045 32.5754 35.0908 32.3813 35.0932 32.1871C35.0949 32.1124 35.1014 32.0379 35.1127 31.964Z" fill="#1C171E"/>
<path d="M32.4578 32.0074C32.4448 32.1785 32.4232 32.3452 32.4037 32.5119C32.3842 32.6787 32.3625 32.8476 32.3387 33.0143C32.2889 33.3478 32.2326 33.6791 32.172 34.0104C32.1438 34.1772 32.1092 34.3417 32.0767 34.5063C32.0442 34.6709 32.0117 34.8376 31.9749 35C31.9056 35.3292 31.8277 35.6497 31.7476 35.9853L31.6501 35.8446C31.9056 35.8965 32.1612 35.9485 32.4145 36.0048C32.5423 36.033 32.6679 36.0676 32.7935 36.0979C32.9191 36.1282 33.0468 36.1607 33.1724 36.1975C33.0425 36.1975 32.9126 36.1975 32.7826 36.178C32.6527 36.1586 32.5206 36.1629 32.3929 36.1521C32.133 36.1326 31.8731 36.1044 31.6155 36.0763C31.5859 36.073 31.5589 36.0582 31.5402 36.0351C31.5216 36.0119 31.5128 35.9824 31.5158 35.9528V35.9377C31.5743 35.6042 31.6328 35.2729 31.7021 34.9437C31.7324 34.7792 31.7692 34.6146 31.806 34.45C31.8428 34.2854 31.8753 34.1209 31.9165 33.9585C31.9922 33.6293 32.0724 33.3088 32.1612 32.9775C32.2066 32.8151 32.2521 32.6527 32.3019 32.4925C32.3517 32.3322 32.4015 32.1676 32.4578 32.0074Z" fill="#54201C"/>
<path d="M32.3668 37.3603C32.3668 37.3603 34.6622 39.6578 36.9597 37.1048L32.3668 37.3603Z" fill="white"/>
<path d="M41.8039 34.7813C41.8945 34.6935 41.9745 34.5954 42.0421 34.4889C42.074 34.439 42.0974 34.3841 42.1114 34.3265C42.1163 34.3 42.1163 34.2729 42.1114 34.2464C42.1127 34.2205 42.1082 34.1946 42.0984 34.1706C42.0984 34.1468 42.0767 34.1273 42.0659 34.1056C42.055 34.084 42.0312 34.0688 42.0139 34.0515C41.9956 34.031 41.9726 34.0154 41.9468 34.006L41.8753 33.9649L41.7909 33.9367C41.7646 33.9241 41.737 33.9147 41.7086 33.9086L41.531 33.8653C41.5086 33.8601 41.4884 33.8479 41.4736 33.8303C41.4588 33.8127 41.45 33.7908 41.4487 33.7678C41.4379 33.5716 41.4379 33.375 41.4487 33.1788C41.4575 32.982 41.4792 32.786 41.5137 32.592C41.5459 32.3923 41.6027 32.1974 41.6826 32.0116C41.7239 31.9132 41.777 31.8201 41.8407 31.7345C41.9068 31.6415 41.9916 31.5633 42.0897 31.5049C42.1928 31.4469 42.3092 31.4163 42.4275 31.4161C42.46 31.4145 42.4925 31.4145 42.5249 31.4161L42.5964 31.4313C42.6478 31.4385 42.698 31.4524 42.7458 31.4725C42.8503 31.5129 42.9445 31.5761 43.0216 31.6573C43.0987 31.7386 43.1569 31.8359 43.1919 31.9424C43.2552 32.1356 43.2766 32.34 43.2547 32.5422C43.24 32.7369 43.2007 32.929 43.1378 33.1139C43.1586 32.924 43.1623 32.7327 43.1486 32.5422C43.1381 32.36 43.0956 32.1812 43.023 32.0138C42.9912 31.9401 42.9444 31.8739 42.8855 31.8195C42.8265 31.765 42.7568 31.7235 42.6809 31.6977C42.6395 31.6833 42.5966 31.6739 42.5531 31.6695H42.4816H42.434C42.357 31.6714 42.282 31.6946 42.2175 31.7366C42.085 31.8347 41.9841 31.9695 41.9273 32.1243C41.8596 32.2929 41.8081 32.4677 41.7735 32.6461C41.7066 33.015 41.6689 33.3886 41.6609 33.7635L41.5765 33.6596L41.767 33.7224C41.7996 33.7342 41.8314 33.748 41.8623 33.7635L41.9533 33.809L42.0421 33.8718C42.1377 33.9366 42.2044 34.0359 42.2283 34.1489C42.2359 34.1868 42.2359 34.2258 42.2283 34.2637C42.2238 34.2998 42.2136 34.3349 42.198 34.3677C42.171 34.4305 42.1337 34.4883 42.0875 34.5387C42.0072 34.6348 41.9113 34.7168 41.8039 34.7813Z" fill="#54201C"/>
<path d="M33.9325 31.1434C33.945 31.0606 33.9638 30.9788 33.9888 30.8987C34.0532 30.685 34.1465 30.481 34.266 30.2924C34.4413 30.0117 34.6746 29.7718 34.9503 29.5886C35.1153 29.4802 35.2955 29.397 35.4851 29.3418C35.6859 29.2858 35.894 29.261 36.1023 29.2682C36.3064 29.2816 36.5076 29.3239 36.6999 29.3938C36.7914 29.4237 36.8798 29.4622 36.9641 29.5085C37.0478 29.5482 37.1282 29.5946 37.2045 29.6471C37.2804 29.6929 37.3528 29.7443 37.421 29.8009C37.4866 29.8517 37.5495 29.9059 37.6094 29.9633L37.7718 30.1278L37.9104 30.2946C37.9889 30.391 38.0612 30.4922 38.127 30.5977C38.1803 30.6769 38.2274 30.7602 38.2677 30.8468C38.3073 30.9205 38.3427 30.9964 38.3738 31.0741C38.3738 31.0741 38.2915 31.0287 38.1573 30.9464L37.9234 30.7991C37.8325 30.7428 37.735 30.6779 37.6246 30.6151C37.5141 30.5523 37.408 30.4786 37.2759 30.4137C37.2175 30.3769 37.1525 30.3466 37.0875 30.3141C37.0226 30.2816 36.9598 30.2469 36.8927 30.2231C36.7605 30.1629 36.6236 30.1136 36.4834 30.0759C36.3476 30.0381 36.2083 30.0149 36.0676 30.0066C35.9313 30.0008 35.7947 30.0102 35.6605 30.0347C35.5265 30.0643 35.3954 30.1056 35.2686 30.1582C35.0254 30.2699 34.7965 30.4102 34.5865 30.5761C34.3894 30.7233 34.2292 30.8706 34.1144 30.9745L33.9325 31.1434Z" fill="#1C171E"/>
<path d="M31.9035 31.0502L31.7476 30.9051C31.648 30.8142 31.5115 30.6886 31.347 30.5478C31.1722 30.3954 30.9862 30.2564 30.7905 30.1321C30.6896 30.0701 30.5839 30.0165 30.4743 29.9718C30.269 29.8865 30.0462 29.8516 29.8247 29.87L29.6558 29.8939C29.5995 29.9112 29.5432 29.9198 29.4869 29.9372C29.3764 29.9697 29.2703 30.0151 29.1577 30.0584C29.0451 30.1017 28.9412 30.1516 28.8567 30.2057C28.664 30.301 28.4994 30.3941 28.3825 30.459C28.32 30.4956 28.2557 30.5288 28.1898 30.5587C28.2145 30.4909 28.2427 30.4244 28.2742 30.3594C28.3083 30.2839 28.3489 30.2114 28.3955 30.1429C28.45 30.0491 28.5123 29.96 28.5817 29.8765C28.664 29.7741 28.7554 29.6791 28.8546 29.5929C28.9707 29.4939 29.097 29.4076 29.2313 29.3352C29.3837 29.254 29.5471 29.1956 29.7164 29.1619C29.8992 29.1316 30.0858 29.1316 30.2686 29.1619C30.4489 29.193 30.6234 29.2515 30.7861 29.3352C30.9357 29.4138 31.0741 29.5121 31.1976 29.6275C31.4022 29.821 31.5702 30.0499 31.6934 30.3031C31.776 30.4766 31.8385 30.659 31.8797 30.8467C31.8934 30.9137 31.9014 30.9818 31.9035 31.0502Z" fill="#1C171E"/>
<path d="M29.9849 43.3998C29.9849 43.3998 28.6856 50.2621 33.7267 50.7991C40.1061 51.4791 41.8082 43.2201 41.8082 43.2201C41.8082 43.2201 45.4656 40.405 48.1009 43.6532C50.7363 46.9013 47.2521 60.7493 44.6146 64.0646L24.7965 62.7892C24.7965 62.7892 20.2902 41.6133 29.9849 43.3998Z" fill="#FFA65B"/>
<path d="M48.101 43.6552C47.2976 42.67 46.3989 42.2477 45.5393 42.1394C45.2123 44.5084 43.2764 46.637 41.6415 48.2027C39.5778 50.1645 37.2759 51.7648 34.6211 52.8259C31.1564 54.2118 27.5055 54.8397 23.8329 55.3529C23.9907 57.8549 24.3155 60.3435 24.8052 62.8021L44.6233 64.0775C47.2521 60.7514 50.7385 46.8861 48.101 43.6552Z" fill="#EF924D"/>
<path d="M48.9844 46.2148L49.0212 47.3798V48.5491L48.9801 49.7163L48.8978 50.8813L48.7766 52.0442L48.6141 53.2027L48.3976 54.3525L48.1572 55.4937L47.8671 56.6284L47.5401 57.7501L47.172 58.861L46.7692 59.961L46.3361 61.0437L45.8597 62.1113L45.3487 63.1659L44.8051 64.2031L44.7705 64.2659H44.6969C43.0396 64.136 41.3794 64.0003 39.7164 63.8588L34.7467 63.4495L32.2629 63.2698L29.7748 63.1226L27.2846 63.0251L24.7943 62.9861H24.699L24.686 62.8909C24.4911 61.4595 24.2529 60.0303 24.0602 58.5968C23.8675 57.1633 23.6813 55.7211 23.6076 54.2659C23.5882 53.9043 23.5752 53.5405 23.5708 53.1832C23.5665 52.8259 23.5708 52.4578 23.5708 52.1005C23.5708 51.7432 23.6076 51.3772 23.638 51.0177L23.6943 50.4764L23.7657 49.9372L23.8545 49.4002L23.9606 48.8675L24.0884 48.3391L24.2335 47.8151L24.398 47.2975L24.5821 46.7865L24.7986 46.2841L25.0152 45.7904L24.7986 46.2863L24.6037 46.793L24.4283 47.3062L24.2724 47.8259L24.136 48.3499L24.0191 48.8783L23.9216 49.411L23.8437 49.948L23.7809 50.4851L23.7354 51.0242C23.7116 51.3859 23.6964 51.7453 23.6878 52.107C23.6791 52.4686 23.6878 52.8281 23.6878 53.1897C23.6878 53.5513 23.7138 53.9108 23.7354 54.2724C23.8264 55.7146 24.0147 57.1481 24.2291 58.5773C24.4435 60.0065 24.6947 61.4335 24.8918 62.8714L24.7813 62.7761L27.2781 62.8064L29.7727 62.8952L32.2651 63.0338L34.7532 63.207C36.4119 63.3369 38.0721 63.477 39.7337 63.6271C41.3953 63.7772 43.0511 63.9216 44.7012 64.0602L44.5951 64.1187L45.1386 63.0901L45.6497 62.0442L46.1304 60.9831L46.5786 59.9004L46.9922 58.8177L47.3668 57.7155L47.7047 56.6002L48.0035 55.4764L48.2633 54.3395L48.4799 53.1962L48.6639 52.0463L48.8069 50.8878L48.9086 49.7271L48.9693 48.5621L48.9931 47.3971L48.9844 46.2148Z" fill="#DD7128"/>
<path d="M14.7185 46.0373C14.7185 46.0373 0.30104 45.3985 0.173279 31.2408C0.173279 31.2408 14.8463 31.2408 14.7185 46.0373Z" fill="#5D8584"/>
<path d="M15.994 35.8295C15.994 35.8295 7.31926 29.4501 11.2734 17.7134C11.2734 17.7134 21.3513 23.4453 15.994 35.8295Z" fill="#5D8584"/>
<path d="M19.1837 38.7636C19.1837 38.7636 14.9741 25.3682 23.3933 16.6935C23.3933 16.6935 28.7528 26.2604 19.1837 38.7636Z" fill="#5D8584"/>
<path d="M20.3313 47.1849C20.3313 47.1849 18.4171 36.8514 27.4773 35.5738C27.4751 35.5716 27.094 45.2706 20.3313 47.1849Z" fill="#5D8584"/>
<path d="M3.61633 33.7895C3.61633 33.7895 16.884 41.0611 17.7783 58.4106C17.7783 58.4106 18.1616 36.3404 13.1854 22.5617" stroke="#396666" stroke-width="2.36" stroke-linecap="round" stroke-linejoin="round"/>
<path d="M22.1178 22.1784C22.1178 22.1784 17.2694 44.6319 18.6726 56.3707C18.6726 56.3707 18.036 46.9294 24.6687 40.039" stroke="#396666" stroke-width="2.36" stroke-linecap="round" stroke-linejoin="round"/>
<path d="M11.1564 52.2975L13.2136 65.5977H24.8204L26.8754 51.5981L11.1564 52.2975Z" fill="#FC6A5A"/>
<path d="M26.2192 56.0741L26.8688 51.5981L11.1477 52.2975L11.6523 55.5457C16.5115 55.7947 21.3729 55.9571 26.2192 56.0741Z" fill="#EA4134"/>
<path d="M28.1984 49.777H8.80688V53.4171H28.1984V49.777Z" fill="#FC6A5A"/>
<path d="M46.7411 52.1612C46.7411 52.1612 41.8927 67.5965 39.0863 68.7463C36.2798 69.8962 25.6908 60.3249 25.6908 60.3249C25.6908 60.3249 14.777 62.7697 23.6791 59.7619C23.6791 59.7619 14.3353 61.2193 23.3933 58.794C23.3933 58.794 15.994 59.8161 23.2655 57.774C23.2655 57.774 14.5908 58.0296 25.8186 56.4986C25.8186 56.4986 20.5869 51.7779 26.9663 56.3708L36.661 61.9902C36.661 61.9902 40.9918 45.2773 42.7848 44.6385C44.5778 43.9997 46.7411 52.1612 46.7411 52.1612Z" fill="#965450"/>
<path d="M38.8978 54.411C40.2987 55.4245 41.846 56.2183 43.4864 56.7648C43.9953 56.9316 44.5063 57.0766 45.0217 57.1979C46.0416 54.3828 46.7411 52.1524 46.7411 52.1524C46.7411 52.1524 44.5756 43.9866 42.7848 44.6232C41.8363 44.9632 40.1668 49.8419 38.8112 54.3374L38.8978 54.411Z" fill="#76413B"/>
<path d="M39.6385 51.3946L36.7194 62.0052C36.7174 62.0128 36.7139 62.02 36.7091 62.0262C36.7043 62.0324 36.6983 62.0376 36.6914 62.0415C36.6845 62.0453 36.6769 62.0477 36.6691 62.0486C36.6613 62.0494 36.6534 62.0487 36.6458 62.0464H36.6328L26.9165 56.4552C26.4618 56.1304 26.0048 55.8056 25.5436 55.4916C25.0824 55.1776 24.619 54.8636 24.1382 54.5994C24.0776 54.5669 24.017 54.5366 23.9585 54.5106C23.9312 54.4983 23.903 54.4882 23.8741 54.4803H23.8524C23.8524 54.4803 23.8524 54.4803 23.8741 54.4803C23.8945 54.469 23.91 54.4505 23.9174 54.4283C23.9174 54.3937 23.9174 54.4045 23.9174 54.411C23.9215 54.4215 23.9266 54.4317 23.9325 54.4413C23.9483 54.4683 23.9657 54.4943 23.9845 54.5193C24.0235 54.5713 24.0668 54.6232 24.1101 54.6752C24.2898 54.8809 24.4847 55.0801 24.6839 55.275C25.0802 55.667 25.4895 56.0481 25.9009 56.4227C25.9123 56.4336 25.9214 56.4467 25.9276 56.4613C25.9338 56.4758 25.937 56.4914 25.937 56.5072C25.937 56.5229 25.9338 56.5386 25.9276 56.5531C25.9214 56.5676 25.9123 56.5807 25.9009 56.5916C25.8826 56.6124 25.857 56.6256 25.8294 56.6284C25.0759 56.7324 24.3237 56.8414 23.5731 56.9554C22.8238 57.0702 22.0724 57.1914 21.3318 57.3387C21.1456 57.3755 20.9615 57.4166 20.7796 57.46C20.6003 57.4983 20.4243 57.5512 20.2534 57.618C20.2249 57.6287 20.1979 57.6433 20.1733 57.6613C20.1733 57.6613 20.1733 57.6613 20.1885 57.6289C20.1906 57.6162 20.1899 57.6033 20.1865 57.591C20.1832 57.5787 20.1772 57.5672 20.169 57.5574C20.156 57.5422 20.169 57.5574 20.182 57.5574C20.2625 57.5823 20.3451 57.5997 20.4288 57.6094C20.6107 57.6332 20.7991 57.644 20.9875 57.6527C21.7411 57.6852 22.5033 57.6743 23.2569 57.6527C23.2877 57.6531 23.3173 57.6643 23.3405 57.6845C23.3638 57.7047 23.3791 57.7324 23.3838 57.7628C23.3884 57.7933 23.3822 57.8243 23.3661 57.8506C23.35 57.8768 23.3251 57.8964 23.2959 57.906C22.7502 58.0598 22.2132 58.2179 21.6675 58.3889C21.399 58.4755 21.1304 58.5643 20.8684 58.6618C20.7363 58.7094 20.6064 58.7614 20.4808 58.8177C20.4194 58.8442 20.3595 58.8739 20.3011 58.9065C20.2741 58.9206 20.248 58.9365 20.2231 58.9541C20.2015 58.9671 20.1798 58.9931 20.1885 58.9823C20.1944 58.9701 20.1975 58.9568 20.1975 58.9433C20.1975 58.9298 20.1944 58.9164 20.1885 58.9043C20.1712 58.8783 20.1668 58.8827 20.1712 58.8848C20.1936 58.893 20.2168 58.8988 20.2404 58.9021C20.3041 58.9134 20.3685 58.9199 20.4332 58.9216C20.5696 58.9216 20.7082 58.9216 20.8489 58.9216C21.1283 58.9216 21.4098 58.8892 21.6891 58.8653C22.2521 58.8134 22.8152 58.7462 23.376 58.6704C23.3937 58.6677 23.4118 58.6686 23.4291 58.6731C23.4464 58.6775 23.4627 58.6855 23.4769 58.6964C23.4911 58.7073 23.5029 58.721 23.5116 58.7367C23.5203 58.7523 23.5257 58.7696 23.5276 58.7874C23.5319 58.8201 23.5241 58.8533 23.5058 58.8808C23.4875 58.9083 23.4598 58.9282 23.428 58.9368C22.7459 59.1208 22.0659 59.3071 21.3903 59.5085C21.0525 59.6102 20.7147 59.7142 20.3834 59.8268C20.2188 59.8831 20.0542 59.9416 19.894 60.0065C19.816 60.039 19.7359 60.0736 19.6774 60.1105C19.6458 60.1271 19.6154 60.1459 19.5865 60.1668C19.5692 60.1884 19.5865 60.1668 19.5865 60.1668C19.5929 60.1532 19.5962 60.1384 19.5962 60.1235C19.5962 60.1085 19.5929 60.0937 19.5865 60.0801C19.5692 60.0498 19.5605 60.0477 19.5562 60.0455C19.5518 60.0433 19.5951 60.0563 19.6298 60.0607H19.7511H20.0066C20.1776 60.0607 20.353 60.0433 20.5285 60.0282C20.8771 60 21.2279 59.961 21.5787 59.9199C22.2781 59.8376 22.9776 59.7402 23.6748 59.6341C23.7074 59.6309 23.7401 59.6395 23.7668 59.6584C23.7936 59.6773 23.8126 59.7052 23.8205 59.737C23.8284 59.7688 23.8246 59.8024 23.8097 59.8316C23.7949 59.8608 23.7701 59.8837 23.7398 59.8961C22.9971 60.1473 22.2543 60.4028 21.5246 60.6821C21.3427 60.7514 21.1608 60.8251 20.9832 60.8987C20.8056 60.9723 20.6259 61.0546 20.4657 61.1434C20.4273 61.1647 20.3904 61.1886 20.3552 61.2148C20.3431 61.2227 20.3322 61.2321 20.3227 61.243C20.3227 61.243 20.3227 61.243 20.3227 61.2257C20.3259 61.2105 20.3257 61.1949 20.3219 61.1799C20.3182 61.1648 20.311 61.1509 20.3011 61.139C20.2708 61.1109 20.2838 61.1261 20.3011 61.1261C20.3191 61.1276 20.3372 61.1276 20.3552 61.1261H20.4895C20.6757 61.1261 20.8706 61.1001 21.0611 61.0762C21.8342 60.9745 22.6051 60.8294 23.3738 60.68C24.1426 60.5306 24.9113 60.366 25.6757 60.1992C25.6953 60.1943 25.7159 60.1943 25.7355 60.1993C25.7552 60.2042 25.7733 60.2138 25.7883 60.2274C26.8515 61.1802 27.9429 62.107 29.0516 63.01C30.1603 63.913 31.2907 64.79 32.447 65.628C33.5962 66.4755 34.8031 67.2417 36.059 67.9212C36.6794 68.2616 37.3419 68.5186 38.0295 68.6856C38.3613 68.7712 38.71 68.7652 39.0386 68.6683C39.3519 68.5217 39.628 68.3063 39.8463 68.0381C40.3037 67.4947 40.7069 66.908 41.0503 66.2863C41.4033 65.667 41.7303 65.0303 42.0378 64.385C42.6571 63.0966 43.2201 61.7865 43.755 60.4526C44.8225 57.7956 45.7861 55.0975 46.6826 52.3777C45.8165 55.1083 44.8831 57.8173 43.8459 60.4894C43.324 61.8233 42.7783 63.1486 42.1677 64.4478C41.8624 65.0975 41.5397 65.7363 41.1867 66.3643C40.8429 66.9993 40.4367 67.5984 39.9741 68.1529C39.7406 68.4428 39.4445 68.676 39.1079 68.835C38.9291 68.9001 38.7395 68.931 38.5492 68.926C38.3637 68.9252 38.1787 68.9056 37.9971 68.8675C37.2908 68.7018 36.6099 68.4426 35.9724 68.0966C35.3227 67.7718 34.7121 67.4015 34.1036 67.0139C33.4951 66.6263 32.9061 66.2235 32.3214 65.8077C31.1499 64.9762 30.0174 64.097 28.9022 63.194C27.787 62.2911 26.6956 61.3664 25.6237 60.4093L25.7342 60.4396C24.9676 60.6114 24.1989 60.7738 23.428 60.9268C22.6549 61.0784 21.884 61.2278 21.098 61.3318C20.899 61.3592 20.6988 61.3766 20.4981 61.3837C20.4448 61.3869 20.3913 61.3869 20.3379 61.3837L20.2469 61.3707C20.1949 61.3611 20.1472 61.3353 20.1105 61.2971C20.0932 61.276 20.081 61.2511 20.075 61.2244C20.0689 61.1977 20.0693 61.1699 20.0759 61.1434C20.0856 61.1137 20.1003 61.0859 20.1192 61.0611C20.1421 61.0356 20.1675 61.0124 20.195 60.9918C20.239 60.9589 20.2853 60.9292 20.3336 60.903C20.5103 60.8059 20.6925 60.7191 20.8793 60.6432C21.0611 60.5652 21.2452 60.4916 21.4293 60.4266C22.1655 60.1429 22.9083 59.8852 23.6532 59.6319L23.716 59.8961C23.0173 60.0043 22.3157 60.1018 21.6112 60.1884C21.2582 60.2317 20.9052 60.2707 20.5501 60.2989C20.3725 60.314 20.195 60.327 20.0152 60.3335C19.9243 60.3335 19.8333 60.3335 19.7402 60.3335C19.6926 60.3335 19.645 60.3335 19.5951 60.3227C19.5326 60.3177 19.4716 60.3008 19.4154 60.2729C19.3818 60.2531 19.3541 60.2247 19.3353 60.1906C19.3246 60.1671 19.319 60.1417 19.319 60.1159C19.319 60.0901 19.3246 60.0646 19.3353 60.0412C19.3547 60.0002 19.3836 59.9646 19.4197 59.9372C19.4621 59.9054 19.507 59.8772 19.554 59.8528C19.6406 59.8073 19.7229 59.7726 19.8074 59.738C19.9763 59.6687 20.1452 59.6102 20.3141 59.5518C20.6519 59.437 20.9919 59.3352 21.3318 59.2335C22.0118 59.0321 22.6939 58.8458 23.3782 58.6639L23.4323 58.9281C22.8664 59.0032 22.3005 59.0674 21.7346 59.1209C21.4488 59.1468 21.1651 59.1663 20.8684 59.1772C20.7233 59.1772 20.5804 59.1772 20.4353 59.1772C20.3584 59.1741 20.2817 59.1662 20.2058 59.1533C20.1596 59.1448 20.1146 59.131 20.0715 59.1122C20.0309 59.094 19.9969 59.0638 19.9741 59.0256C19.9585 58.9982 19.9503 58.9672 19.9503 58.9357C19.9503 58.9042 19.9585 58.8732 19.9741 58.8458C20.0037 58.7986 20.0428 58.7581 20.0889 58.7267C20.122 58.7035 20.1568 58.6825 20.1928 58.6639C20.2599 58.6271 20.3271 58.5946 20.3942 58.5643C20.5285 58.5059 20.6627 58.4539 20.797 58.4041C21.0655 58.3045 21.3383 58.2157 21.609 58.1291C22.1525 57.958 22.6917 57.7999 23.2461 57.6484L23.2851 57.8995C22.5207 57.9169 21.7692 57.9255 20.994 57.8995C20.8035 57.8995 20.6107 57.8779 20.4158 57.8519C20.311 57.8407 20.2079 57.8174 20.1084 57.7826C20.0661 57.7686 20.0281 57.744 19.9979 57.7111C19.9819 57.6926 19.9703 57.6708 19.9639 57.6472C19.9575 57.6235 19.9566 57.5988 19.9611 57.5747C19.9673 57.5385 19.9847 57.5052 20.0109 57.4794C20.0581 57.4361 20.1133 57.4022 20.1733 57.3798C20.358 57.3089 20.5476 57.2517 20.7407 57.2088C20.9269 57.1633 21.1153 57.1243 21.3015 57.0875C22.0529 56.9402 22.8043 56.8212 23.5557 56.7064C24.3071 56.5916 25.0715 56.4898 25.8165 56.3837L25.7537 56.6003C25.3379 56.2213 24.9286 55.838 24.5302 55.4396C24.3331 55.2404 24.1361 55.039 23.9498 54.8224C23.9022 54.7661 23.8567 54.712 23.8134 54.6514C23.7701 54.5907 23.7701 54.5886 23.7485 54.5518C23.7378 54.5322 23.7284 54.5119 23.7203 54.4911C23.7023 54.4534 23.6977 54.4106 23.7073 54.3699C23.7131 54.3503 23.7228 54.3322 23.7358 54.3166C23.7489 54.3009 23.7649 54.2881 23.7831 54.2789C23.806 54.2678 23.8313 54.2626 23.8567 54.2638C23.8837 54.2645 23.9106 54.2681 23.9369 54.2746C23.9758 54.2863 24.0141 54.3 24.0516 54.3157C24.1209 54.3461 24.1859 54.3785 24.2487 54.4132C24.7467 54.6925 25.2058 55.0108 25.6692 55.3292C26.1326 55.6475 26.5852 55.9788 27.0399 56.3036L36.7151 61.9532L36.6285 61.9879L39.6385 51.3946Z" fill="#54201C"/>
<path d="M37.9385 52.2868C37.9385 52.2868 40.7536 41.0611 45.9745 42.081C51.1954 43.101 47.3777 53.3089 46.4855 55.6042C43.358 55.4271 40.3666 54.266 37.9385 52.2868Z" fill="#FFA65B"/>
<path d="M45.9745 42.0811L46.4336 42.1915L46.8667 42.3669C47.0009 42.4492 47.1439 42.5207 47.2716 42.6138L47.4557 42.7653L47.5488 42.839L47.6289 42.9278C47.7423 43.0396 47.8445 43.1622 47.9342 43.2937L48.0707 43.4908L48.1811 43.7073C48.257 43.8462 48.3214 43.991 48.3738 44.1404C48.4319 44.288 48.4804 44.4391 48.5189 44.593C48.6007 44.9005 48.6579 45.214 48.69 45.5306C48.7116 45.6887 48.716 45.8468 48.7268 46.0048C48.7376 46.1629 48.7398 46.321 48.7398 46.4791C48.7398 46.6371 48.7398 46.7952 48.7398 46.9533C48.7398 47.1114 48.7398 47.2716 48.7138 47.4275C48.6943 47.7437 48.6575 48.0577 48.6207 48.3717C48.5839 48.6857 48.5319 48.9975 48.4734 49.3093C48.415 49.6211 48.3565 49.9286 48.2872 50.2361C48.1508 50.8533 47.9905 51.4639 47.8151 52.0702C47.4643 53.2829 47.0551 54.476 46.6003 55.6519L46.57 55.7342H46.4921C46.0977 55.7233 45.7044 55.6893 45.3141 55.6324C45.1213 55.5999 44.9264 55.5739 44.7359 55.5349C44.5453 55.496 44.3504 55.4656 44.1599 55.4158C43.9693 55.366 43.7788 55.3314 43.5904 55.2751C43.402 55.2188 43.2136 55.1711 43.0252 55.1148L42.4687 54.9308C42.2846 54.868 42.1027 54.7922 41.9186 54.7251C41.7346 54.6579 41.557 54.5778 41.3773 54.4977C41.1976 54.4176 41.0178 54.3461 40.8446 54.2552L40.3141 53.978C40.1387 53.8935 39.9741 53.7853 39.803 53.69C39.6319 53.5947 39.4609 53.4994 39.3028 53.3868L38.8156 53.0577C38.651 52.9516 38.4994 52.8281 38.3457 52.709L37.8823 52.3496L37.8368 52.3149L37.852 52.2586C37.9277 51.9836 38.0035 51.7129 38.0901 51.4423C38.1768 51.1716 38.2591 50.9031 38.3522 50.6346C38.4453 50.366 38.5362 50.0997 38.6358 49.8355C38.7355 49.5713 38.8307 49.3028 38.9433 49.043L39.2725 48.2612C39.3266 48.1291 39.3916 48.0035 39.45 47.8758L39.6319 47.4925L39.8138 47.1092C39.8788 46.9836 39.9481 46.8602 40.0152 46.7346L40.4245 45.9918L40.0455 46.7498L39.8571 47.1287L39.6861 47.5163L39.5172 47.9039C39.463 48.0339 39.4002 48.1616 39.3504 48.2937L39.0451 49.0819C38.939 49.344 38.8589 49.6146 38.7614 49.8788C38.664 50.143 38.5774 50.4115 38.4929 50.68C38.4085 50.9485 38.324 51.2192 38.2461 51.4899C38.1681 51.7606 38.0923 52.0313 38.0295 52.3019L37.9992 52.2132L38.4626 52.5575C38.6185 52.6722 38.7679 52.7935 38.9347 52.8931L39.4197 53.2093C39.5778 53.3175 39.751 53.402 39.9156 53.5016C40.0802 53.6012 40.2469 53.7008 40.4223 53.7831L40.9377 54.0429C41.1088 54.1317 41.2907 54.1989 41.4661 54.279C41.6415 54.3591 41.819 54.4349 42.0009 54.4955C42.1828 54.5562 42.3604 54.6341 42.5423 54.6969L43.0923 54.8745C43.2785 54.9308 43.4648 54.9763 43.6488 55.0304C43.8329 55.0845 44.0235 55.1192 44.2118 55.1647C44.4002 55.2101 44.5886 55.2404 44.777 55.2794C44.9654 55.3184 45.1581 55.34 45.3465 55.3704C45.7277 55.418 46.1153 55.4592 46.4899 55.47L46.373 55.5501C46.832 54.3829 47.2391 53.1984 47.6008 51.9944C47.7783 51.3946 47.9407 50.7883 48.0815 50.1776C48.1508 49.8723 48.2157 49.567 48.2764 49.2595C48.337 48.952 48.389 48.6445 48.4388 48.3349C48.4886 48.0252 48.5211 47.7155 48.5471 47.4037C48.5665 47.2478 48.5709 47.0919 48.5795 46.936C48.5882 46.7801 48.5969 46.6242 48.5969 46.4682C48.5969 46.3123 48.5969 46.1564 48.5969 46.0005C48.5969 45.8446 48.5969 45.6887 48.5687 45.5328C48.5424 45.2228 48.4932 44.9152 48.4215 44.6125C48.3885 44.4605 48.3458 44.3107 48.2937 44.1642C48.2463 44.0156 48.1877 43.8708 48.1183 43.7311L48.0144 43.5146L47.8888 43.3197C47.8059 43.1885 47.7101 43.0659 47.6029 42.9537L47.525 42.865L47.4362 42.7892L47.2608 42.6376C47.1395 42.5401 46.9988 42.4687 46.8688 42.3821C46.7389 42.2954 46.583 42.2521 46.4358 42.1915L45.9745 42.0811Z" fill="#DD7128"/>
<path d="M9.97627 58.1378C9.97627 58.1378 8.82209 55.6021 9.54318 54.9957C10.2643 54.3894 16.8256 54.9524 11.2171 55.8771C11.2171 55.8771 21.0222 55.2881 11.845 57.0226C11.845 57.0226 19.6146 56.256 12.3106 57.8498C12.3106 57.8498 18.5081 57.5856 12.1829 58.69L12.4839 60.6389C12.4839 60.6389 11.8949 61.3405 9.97627 58.1378Z" fill="#965450"/>
<path d="M9.97621 58.1378C9.80339 57.7709 9.65227 57.3942 9.52363 57.0096C9.38935 56.6208 9.30211 56.2173 9.26378 55.8078C9.24374 55.5963 9.27187 55.3831 9.34607 55.1841C9.39085 55.0779 9.46623 54.9875 9.56261 54.9243C9.6573 54.8695 9.75941 54.8286 9.86577 54.803C10.27 54.7159 10.6823 54.6724 11.0957 54.6731C11.507 54.6655 11.9183 54.6807 12.3279 54.7186C12.5444 54.7402 12.7393 54.7662 12.9429 54.8073C13.0469 54.8277 13.1496 54.8544 13.2504 54.8875C13.3044 54.9065 13.3572 54.929 13.4084 54.9546C13.4743 54.9877 13.5281 55.0407 13.5622 55.1062C13.5723 55.1302 13.5775 55.1559 13.5775 55.182C13.5775 55.208 13.5723 55.2338 13.5622 55.2578C13.5468 55.2952 13.524 55.3291 13.4951 55.3574C13.4506 55.3988 13.4012 55.4345 13.3478 55.4635C13.2524 55.5137 13.1532 55.5564 13.0511 55.5912C12.8541 55.6605 12.6549 55.7147 12.4535 55.7645C12.0529 55.8662 11.6501 55.9355 11.2473 56.007L11.2192 55.7645C11.9446 55.7212 12.6679 55.6887 13.3846 55.6714C13.7484 55.6714 14.11 55.6562 14.4673 55.6714C14.6492 55.6714 14.8311 55.6714 15.0152 55.6887C15.2034 55.6962 15.3908 55.7171 15.576 55.7515C15.6293 55.7617 15.6815 55.7769 15.7319 55.7969L15.7753 55.8186C15.7943 55.8309 15.8124 55.8447 15.8294 55.8597C15.8542 55.8829 15.8728 55.912 15.8835 55.9442C15.896 55.9829 15.896 56.0246 15.8835 56.0633C15.8518 56.1338 15.7967 56.1911 15.7276 56.2257C15.68 56.2539 15.6345 56.2733 15.589 56.295C15.4166 56.3659 15.2402 56.4267 15.0607 56.4769C14.7077 56.5808 14.3526 56.6631 13.9974 56.7432C13.2893 56.9013 12.5769 57.0377 11.8623 57.1763L11.8255 56.9165C12.4015 56.8645 12.9775 56.819 13.5578 56.7844C13.8459 56.7671 14.136 56.7519 14.424 56.7454C14.5691 56.7454 14.7142 56.7454 14.8571 56.7454C15.0079 56.7447 15.1584 56.7556 15.3075 56.7779C15.3532 56.7846 15.3977 56.7977 15.4396 56.8169C15.4623 56.8259 15.4831 56.8393 15.5005 56.8564C15.518 56.8735 15.5319 56.8939 15.5414 56.9165C15.551 56.9457 15.5522 56.9769 15.5449 57.0068C15.5377 57.0367 15.5222 57.0639 15.5002 57.0854C15.4337 57.1447 15.3565 57.191 15.2729 57.2218C15.13 57.2781 14.9914 57.3214 14.8528 57.3647C14.5713 57.447 14.2919 57.5185 14.0104 57.5813C13.4474 57.7155 12.8844 57.8368 12.3192 57.9559L12.2976 57.7826C12.774 57.7697 13.2504 57.7632 13.7289 57.7697C13.9671 57.7697 14.2075 57.7805 14.4457 57.8C14.5662 57.808 14.6862 57.8224 14.8051 57.8433C14.8691 57.8528 14.9317 57.8702 14.9914 57.8952C15.0115 57.9051 15.0298 57.9183 15.0455 57.9342C15.0574 57.9466 15.0656 57.9622 15.0691 57.979C15.0725 57.9959 15.0711 58.0134 15.065 58.0295C15.0456 58.0668 15.0144 58.0965 14.9762 58.114C14.8664 58.1688 14.7509 58.2116 14.6319 58.2417C14.515 58.2764 14.4002 58.3024 14.2833 58.3305C14.0494 58.3846 13.8177 58.4301 13.5817 58.4756C13.1139 58.5644 12.644 58.638 12.1741 58.7095C12.6397 58.6185 13.1074 58.5211 13.5708 58.4193C13.8025 58.3673 14.0342 58.3132 14.2638 58.2525C14.3785 58.2222 14.4933 58.1897 14.6038 58.1529C14.7148 58.1219 14.8223 58.079 14.9242 58.0252C14.9399 58.0161 14.9538 58.0044 14.9654 57.9905C14.9654 57.9905 14.9654 58.01 14.9654 58.0057L14.9459 57.9949C14.8947 57.9765 14.8417 57.9635 14.7878 57.9559C14.673 57.9407 14.5561 57.9321 14.437 57.9256C14.2031 57.9256 13.965 57.9147 13.7289 57.9256C13.2547 57.9256 12.7783 57.9429 12.3041 57.9667C12.2832 57.9659 12.2633 57.9578 12.2478 57.9438C12.2324 57.9298 12.2223 57.9108 12.2195 57.8901C12.2166 57.8694 12.2212 57.8484 12.2323 57.8307C12.2434 57.8131 12.2604 57.7999 12.2802 57.7935C12.8411 57.6635 13.4019 57.5315 13.9563 57.3864C14.2356 57.3127 14.5106 57.237 14.7835 57.1503C14.9177 57.107 15.052 57.0616 15.1776 57.0074C15.2287 56.9869 15.2774 56.9608 15.3227 56.9295C15.3227 56.9295 15.2967 56.9468 15.3227 57.0009C15.3487 57.0551 15.3508 57.0334 15.3422 57.0334C15.3184 57.0246 15.2937 57.0188 15.2685 57.0161C15.1323 56.9965 14.9948 56.9871 14.8571 56.9879H14.424C14.1382 56.9879 13.8523 57.0118 13.5578 57.0312C12.9862 57.0702 12.4123 57.1179 11.8407 57.1763C11.8083 57.1772 11.7767 57.1661 11.7519 57.1451C11.7272 57.1242 11.711 57.0949 11.7064 57.0628C11.7019 57.0307 11.7093 56.9981 11.7273 56.9711C11.7452 56.9441 11.7725 56.9247 11.8038 56.9165C12.5141 56.7801 13.2222 56.6371 13.926 56.4834C14.2789 56.4011 14.6276 56.3145 14.9719 56.2192C15.1409 56.1721 15.3071 56.1157 15.4699 56.0503C15.5063 56.0352 15.5418 56.0178 15.576 55.9983C15.6064 55.9875 15.6367 55.9464 15.6172 55.9788C15.5977 56.0113 15.6064 56.0157 15.6172 56.033C15.6178 56.039 15.6197 56.0447 15.6227 56.05C15.6256 56.0552 15.6297 56.0597 15.6345 56.0633H15.6193C15.5851 56.049 15.5496 56.0381 15.5132 56.0308C15.3422 55.9997 15.1693 55.9801 14.9957 55.9723C14.8181 55.9594 14.6384 55.955 14.4587 55.9507C14.0992 55.9507 13.7376 55.9507 13.376 55.9507C12.6549 55.9658 11.9316 55.994 11.2105 56.0308C11.1946 56.0317 11.1786 56.0294 11.1636 56.0241C11.1485 56.0188 11.1347 56.0106 11.1228 55.9999C11.1109 55.9893 11.1013 55.9764 11.0944 55.962C11.0875 55.9476 11.0836 55.932 11.0828 55.916C11.0822 55.8865 11.0921 55.8577 11.1107 55.8347C11.1294 55.8117 11.1555 55.7961 11.1845 55.7905C11.5851 55.7255 11.9857 55.6519 12.3798 55.5739C12.5747 55.5284 12.7718 55.4786 12.958 55.418C13.0495 55.3882 13.1386 55.3512 13.2244 55.3076C13.2613 55.2901 13.2956 55.2675 13.3261 55.2404C13.3352 55.2335 13.3426 55.2246 13.3478 55.2144C13.3293 55.1921 13.3065 55.1737 13.2807 55.1603C13.2411 55.1389 13.1998 55.1208 13.1572 55.1062C13.0656 55.0724 12.9715 55.0456 12.8757 55.0261C12.6798 54.9834 12.4817 54.9509 12.2824 54.9286C11.8804 54.8838 11.4764 54.8607 11.0719 54.8593C10.6697 54.852 10.2678 54.8854 9.87227 54.9589C9.77969 54.9767 9.69004 55.0073 9.60592 55.0499C9.52628 55.1025 9.4644 55.178 9.42835 55.2664C9.35399 55.4481 9.32286 55.6445 9.33741 55.8403C9.36102 56.2446 9.43374 56.6445 9.55395 57.0312C9.67534 57.4072 9.81629 57.7765 9.97621 58.1378Z" fill="#54201C"/>
</g>
<defs>
<clipPath id="clip0_1_819">
<rect width="154.827" height="96.7367" fill="white" transform="translate(0.173279)"/>
</clipPath>
</defs>
</svg>
